<?xml version="1.0" standalone="no"?>
<!DOCTYPE svg PUBLIC "-//W3C//DTD SVG 20010904//EN"
 "http://www.w3.org/TR/2001/REC-SVG-20010904/DTD/svg10.dtd">
<svg version="1.0" xmlns="http://www.w3.org/2000/svg"
 width="260.000000pt" height="260.000000pt" viewBox="0 0 260.000000 260.000000"
 preserveAspectRatio="xMidYMid meet">
<metadata>
Created by potrace 1.11, written by Peter Selinger 2001-2013
</metadata>
<g transform="translate(0.000000,260.000000) scale(0.100000,-0.100000)"
fill="#000000" stroke="none">
<path d="M155 2122 c-26 -5 -52 -29 -58 -53 -7 -26 0 -24 29 10 14 16 35 31
47 33 12 2 18 6 12 9 -5 3 -19 4 -30 1z"/>
<path d="M199 2108 c-5 -9 -19 -18 -31 -20 -29 -4 -55 -51 -63 -113 -4 -27
-12 -56 -19 -64 -12 -15 -9 -53 4 -61 8 -5 12 -31 26 -177 7 -78 6 -89 -11
-86 -7 2 -11 -77 -13 -240 -1 -133 -2 -260 -3 -282 -1 -22 0 -78 3 -125 3 -49
1 -95 -5 -108 -7 -15 -8 -29 -1 -40 5 -9 9 -36 8 -59 -1 -35 2 -43 17 -43 22
0 26 -6 30 -44 3 -17 -1 -31 -9 -33 -8 -3 -12 6 -12 26 0 40 -11 39 -32 -4
-16 -31 -16 -35 -2 -35 10 0 15 -8 13 -22 -4 -33 8 -61 31 -76 21 -13 310 -19
341 -7 19 7 39 47 39 75 0 11 -9 29 -20 40 -19 19 -29 20 -109 14 -91 -7 -146
0 -136 16 3 5 0 12 -6 15 -5 4 -8 13 -5 21 3 8 0 11 -10 7 -10 -3 -14 2 -15
18 0 13 -2 33 -5 44 -18 92 -11 155 18 155 10 0 12 20 10 77 -2 43 -3 128 -3
188 2 551 4 656 13 661 5 3 5 10 0 17 -15 20 -11 135 4 141 8 3 14 15 14 26 0
11 5 20 10 20 6 0 10 -7 10 -15 0 -19 9 -19 31 1 15 13 23 14 54 4 20 -7 39
-18 41 -25 7 -18 73 -10 90 12 20 27 17 77 -5 97 -16 15 -41 18 -151 19 -114
2 -133 0 -141 -15z"/>
<path d="M2150 2122 c-36 -5 -60 -31 -60 -64 0 -70 53 -96 113 -55 41 28 68
28 97 2 20 -18 20 -18 20 3 0 12 5 22 11 22 7 0 9 -10 7 -25 -4 -18 -1 -25 11
-25 13 0 16 -11 16 -57 0 -32 -4 -64 -8 -70 -5 -7 -5 -19 0 -25 4 -7 8 -137 9
-288 1 -151 2 -277 4 -280 1 -3 1 -50 0 -105 -6 -303 -4 -453 4 -445 6 6 10
50 10 100 1 77 3 88 14 73 17 -22 9 -130 -14 -203 -5 -13 -6 -13 -14 0 -8 13
-10 12 -10 -2 0 -9 -5 -27 -11 -40 -11 -25 -20 -26 -151 -13 -59 5 -69 4 -87
-14 -24 -24 -27 -69 -7 -96 18 -24 96 -32 253 -25 106 5 114 7 130 30 10 13
16 38 14 53 -2 17 1 27 7 23 5 -3 12 0 14 7 7 17 -2 38 -13 31 -5 -3 -9 4 -9
15 0 12 -4 21 -10 21 -5 0 -10 -13 -10 -29 0 -31 -15 -50 -22 -29 -9 26 5 66
26 76 19 8 22 17 19 51 -2 23 1 41 7 41 6 0 10 11 10 25 0 14 -4 25 -10 25 -6
0 -8 40 -4 113 4 61 6 117 4 122 -1 6 -3 128 -4 273 -2 144 -6 265 -9 269 -4
3 -7 -1 -7 -10 0 -10 -4 -17 -9 -17 -6 0 -8 8 -7 18 2 9 7 53 11 97 9 108 16
149 25 155 15 9 15 47 1 64 -8 9 -16 37 -18 62 -5 72 -30 111 -77 118 -30 4
-29 16 1 16 22 0 38 -9 56 -30 14 -17 29 -26 32 -20 9 15 -41 60 -67 61 -79 3
-267 3 -288 1z"/>
<path d="M312 1997 c-8 -10 -2 -12 31 -8 33 3 38 5 22 12 -29 11 -41 11 -53
-4z"/>
<path d="M2231 2001 c-9 -6 -1 -10 27 -13 32 -3 38 -1 30 9 -12 15 -37 17 -57
4z"/>
<path d="M1644 1970 c-12 -5 -25 -13 -29 -19 -3 -6 -17 -11 -30 -11 -13 0 -25
-4 -27 -10 -2 -6 -26 -1 -58 11 -70 27 -215 36 -302 19 -191 -37 -318 -174
-320 -345 -2 -122 33 -197 116 -250 45 -29 60 -33 121 -34 77 -1 233 -28 253
-44 20 -15 91 -54 160 -86 55 -26 62 -33 62 -58 0 -33 16 -53 41 -53 19 0 28
-33 21 -79 -3 -24 -9 -31 -27 -31 -35 0 -51 -26 -38 -61 11 -28 10 -31 -28
-56 -44 -29 -139 -64 -151 -57 -5 3 -8 14 -8 25 0 25 -25 25 -47 0 -9 -11 -20
-18 -25 -15 -4 3 -8 0 -8 -7 0 -8 -17 -9 -58 -5 -159 17 -243 79 -258 191 -12
82 -16 95 -35 106 -28 15 -86 3 -99 -21 -16 -29 -12 -91 6 -105 26 -18 29 -92
7 -160 -38 -115 -23 -165 47 -165 21 0 42 5 45 10 3 6 17 10 30 10 13 0 31 7
39 16 9 8 21 12 27 8 7 -4 26 -8 43 -10 17 -1 54 -7 81 -13 82 -17 260 -7 329
18 156 56 243 150 265 287 12 76 -1 156 -33 205 -32 48 -90 77 -258 129 -73
23 -157 51 -186 62 -29 12 -73 21 -98 21 -35 0 -44 3 -44 17 0 9 -12 22 -27
29 -63 28 -73 39 -62 67 14 39 3 63 -29 61 -26 -2 -27 0 -27 48 -1 139 116
220 313 217 45 -1 80 -9 123 -28 57 -26 60 -29 55 -56 -7 -36 22 -69 54 -61
27 7 40 -10 40 -54 0 -43 36 -68 84 -59 60 11 68 78 31 274 -4 22 -1 37 9 47
15 16 11 48 -8 64 -18 15 -59 21 -82 11z"/>
<path d="M1295 1620 c-3 -5 -1 -10 4 -10 6 0 11 5 11 10 0 6 -2 10 -4 10 -3 0
-8 -4 -11 -10z"/>
<path d="M1240 1539 c0 -7 -14 -10 -35 -7 -39 4 -46 -6 -15 -22 24 -13 60 3
60 25 0 8 -2 15 -5 15 -3 0 -5 -5 -5 -11z"/>
<path d="M216 874 c-8 -20 -6 -91 4 -129 7 -28 8 -27 9 15 2 25 3 64 4 88 2
43 -6 55 -17 26z"/>
<path d="M350 741 c0 -5 -9 -7 -19 -4 -16 4 -19 1 -14 -16 7 -26 25 -27 46 -3
21 23 21 32 2 32 -8 0 -15 -4 -15 -9z"/>
<path d="M2220 742 c0 -15 38 -44 51 -40 7 2 13 12 15 22 2 13 -2 17 -17 13
-10 -3 -22 -1 -25 4 -7 11 -24 12 -24 1z"/>
<path d="M290 665 c0 -16 16 -20 24 -6 3 5 -1 11 -9 15 -9 3 -15 0 -15 -9z"/>
<path d="M2290 665 c0 -16 16 -20 24 -6 3 5 -1 11 -9 15 -9 3 -15 0 -15 -9z"/>
</g>
</svg>
