<?xml version="1.0" encoding="utf-8"?>
<!-- Generator: Adobe Illustrator 21.1.0, SVG Export Plug-In . SVG Version: 6.00 Build 0)  -->
<svg version="1.1" id="Layer_1" xmlns="http://www.w3.org/2000/svg" xmlns:xlink="http://www.w3.org/1999/xlink" x="0px" y="0px"
	 viewBox="0 0 582.3 74.7" style="enable-background:new 0 0 582.3 74.7;" xml:space="preserve">
<style type="text/css">
	.st0{fill:#FFFFFF;}
</style>
<g>
	<path class="st0" d="M173.3,55.8v-0.1c0.7,0,1.2-0.2,1.5-0.6c0.4,0.8,0.3,1.5,0,2c2.8-0.3,5-1.1,6.8-2.4c0.5-0.4,1-0.8,1.4-1.3
		c-0.1,0-0.2-0.1-0.2-0.2c-1.7-1.2-0.1-3.6,1.8-2.6c0.2-0.8,0.4-1.7,0.4-2.7c0-0.7-0.1-1.4-0.3-2c-0.9,0.4-2.1,0-2.3-1.5
		c0-0.5,0-0.9,0.1-1.4c-1-0.8-2.5-1.5-4.2-2c-0.8-0.5-1.5-1-2.3-1.5c-0.4-0.3-1.4-0.7-2.1-1.1c-0.1-0.4-0.4-0.6-0.9-0.6h-0.1
		c-0.1,0-0.2,0.1-0.3,0.2c-2.7-1-5.7-1.4-9.4-1.5c-0.4,0-0.6,0.2-0.8,0.4h-0.2c-1-0.6-1.9-1.3-3.1-1.8c-0.1-0.1-0.1-0.2-0.2-0.3
		c-0.2-0.2-0.4-0.4-0.6-0.4c-2-2-3-4.6-3-7.9c0-4.3,1.5-7.8,4.6-10.4c3.1-2.6,7.2-3.9,12.4-3.9c3.2,0,6.1,0.7,8.9,2.2
		c0.4-1,1.4-1.2,2.3-0.7c0.3-1,1.1-1.5,2.5-1.5c1.7,0,2.6,0.9,2.6,2.6v0.5c-0.8-0.3-1.3,0.6-0.9,1.2c0,0.3,0.2,2,0.4,2.4
		c0.1,1.1,0.2,2.2,0.5,3.2v2.8c0,1.8-0.9,2.7-2.6,2.7c-1.7,0-2.6-0.9-2.6-2.7c0-0.8-0.2-1.6-0.7-2.4c-0.8,1.2-2.7,0.9-2.9-0.9v-0.3
		c0.1-0.5,0.3-0.8,0.6-1.1c-0.1-0.1-0.2-0.2-0.3-0.2c-2.3-1.6-4.9-2.5-7.8-2.5c-3.9,0-6.9,0.9-9,2.7c-1.2,1.1-2,2.4-2.5,3.9l0.1,0.1
		c0,0.2-0.1,0.3-0.1,0.4c0,0.2,0.1,0.4,0.2,0.5l0,0l-0.1,0.2c-0.1,0.3-0.2,0.6-0.2,1s0,0.7,0,1v0.1c0.2,1,1.3,1,1.6,0.1
		c0.2,0.2,0.4,0.3,0.6,0.4c0,0.1-0.1,0.2-0.2,0.3c0.1,0.2,0.3,0.4,0.4,0.7v0.2c0,0.8-0.4,1.3-1,1.6c1,1,2.4,1.8,4.2,2.4
		c-0.2,0.2-0.2,0.3-0.3,0.4c-0.2,1,0.8,1.4,1.3,0.8c0.3,0,0.5,0,0.8,0c0.6,0,1,0,1.4,0c1.9,1.1,4.1,1.6,6.2,2.3
		c2.9,1,5.9,1.9,8.9,2.9c0,0.3,0.3,0.6,0.7,0.6c0.1,0.1,0.2,0.2,0.4,0.2c0.4,0.1,0.8,0.1,1.2,0.3c1.1,0.7,2,2.3,2.8,4.2
		c0.2,0.9,0.3,1.9,0.3,2.9c0,4.7-1.8,8.4-5.4,11c-3.2,2.6-7.2,3.8-12.1,3.8c-3.1,0-5.7-0.4-8.1-1.1c-0.2,0.1-0.4,0.2-0.6,0.2h-0.3
		c-0.9-0.1-1.4-0.5-1.6-1.1c0,0-0.1,0-0.1-0.1v0.2c-0.2,1.2-1.3,1.6-2.4,1.5h-0.1c-0.1,0-0.1,0-0.2,0c-0.4,0.6-1.1,0.8-2.1,0.8
		c-1.7,0-2.6-0.9-2.6-2.6v-1.9c0.2-0.1,0.2-0.3,0.3-0.6c0.1-0.1,0.1-0.1,0.2-0.2c0.8-2,1.6-4.9,0.5-7c-0.3-0.4-0.6-0.5-1-0.4v-2.1
		c0-1.8,0.9-2.7,2.6-2.7s2.6,0.9,2.6,2.7c0,6.1,4.2,9.1,12.7,9.2c-0.2-0.2-0.4-0.5-0.4-0.8C172.4,57.1,173.2,56.7,173.3,55.8z
		 M168.6,29.4c0.5-0.1,0.8-0.5,0.7-0.9h0.2c0,1.2-1.1,2.4-2.4,1.4c-0.4-0.3-0.7-0.7-0.7-1.1C166.8,29.3,167.8,29.4,168.6,29.4z
		 M170.1,29c0-0.1,0-0.2,0.1-0.2c0,0,0,0,0,0.1L170.1,29z M170.8,30.7c-0.3-0.2-0.5-0.4-0.6-0.7l0.1,0.1c0.3,0.2,0.6,0.5,0.9,0.8
		C171.1,30.8,170.9,30.8,170.8,30.7z M171.1,25.9c0.2-0.2,0.4-0.3,0.7-0.4c0,0.1,0,0.2,0,0.4c0,0-0.1,0.1-0.1,0.2
		C171.5,26.1,171.3,26,171.1,25.9z M187.7,16.8L187.7,16.8L187.7,16.8L187.7,16.8z"/>
	<path class="st0" d="M219.2,56.8c1,0,2,0.2,2.9,0.2c0.5-0.1,0.8-0.5,0.7-1h1.8c1.7,0,2.6,0.9,2.6,2.6s-0.9,2.6-2.6,2.6h-21.8
		c-1.5,0-2.4-0.6-2.6-1.9c0.3-0.4,0.5-0.8,0.8-1.1c0.3,0.1,0.6,0,1.2,0.2c0.6-0.1,0.8-0.6,0.7-1.1c0.7-0.3,1.2-0.7,1.6-1h0.1
		c0.2,0,0.4-0.1,0.4-0.2h1c-0.1-0.2-0.2-0.4-0.2-0.6l0,0c0.4-0.1,0.7-0.3,0.7-0.7c0.1,0,0.2-0.2,0.3-0.3c0,0.5,0,1,0,1.4
		c0.2,1.1,1.5,1.1,1.6-0.1c0-1.3,0.2-3.1,0.4-5.2c0.2-1.2,0.2-2.5,0.2-3.8v-0.1c0,0,0,0,0-0.1v-1.7c0.3-3.2,0.2-6.4,0-9.7v-7.5
		c-0.1,0.1-0.3,0.2-0.4,0.3c0-0.7,0-1.3,0-2c-0.3-0.9-1.4-0.9-1.6,0.1c0,0.5,0,1,0,1.6c-1.6-1.3,0.1-3.6,2-2.5v-3.8
		c-0.4,0-0.6-0.2-0.9-0.3L208,21c-0.1-0.1-0.2-0.1-0.2-0.2l0,0l-0.2-0.2c-0.5-0.3-1-0.6-1.5-1c-0.3-0.3-0.4-0.5-0.5-0.8H203
		c-1.5,0-2.3-0.6-2.6-1.8c0.4,0,0.6-0.3,0.8-0.6c0-0.4,0.4-1.5,0.8-1.5c0.6-0.1,0.8-0.6,0.7-1.1c0.1,0.1,0.3,0.2,0.6,0.3
		c4.3,0,8.4,0.5,12.7,0.6c0.6-0.1,0.8-0.6,0.7-1h6c5.4,0,9.7,1.2,13,3.8c3.4,2.7,5.1,6.3,5.1,10.9c0,4.5-1.7,8.2-5.1,10.9
		c-3.2,2.6-7.2,3.9-12.1,3.9H223c-0.1,0.6-0.6,1.2-1.4,1.3c-0.8,0-1.8,0.1-2.5-0.3c-0.3,0.4-0.7,0.5-1.2,0.5
		c0.3,0.6,0.4,1.2,0.2,1.8l-0.3-0.3v-0.1V46c0,0,0-0.1-0.1-0.1l0,0c-0.2-0.2-0.4-0.4-0.6-0.4H217c-0.4-0.3-0.8-0.4-1.2-0.6
		c-0.1,0-0.1,0-0.2,0c0.3-0.4,0.8-0.6,1.4-0.5c-0.3-0.3-0.4-0.6-0.5-1.1h-2.3v2.9c-0.2-0.2-0.3-0.4-0.5-0.5c-1-0.3-1.5,0.7-0.8,1.4
		c0.5,2,0.4,4.2,0.4,6.2c0.2,1.1,1.5,1.1,1.6-0.1v-0.1c0.1,0.1,0.2,0.3,0.3,0.6c0,0.1,0,0.2,0.1,0.3c0.6,0.8,1.2,1.3,1.5,2.3l0,0
		h1.6C218.4,56.4,218.7,56.7,219.2,56.8z M222.1,37.7c0-0.1,0-0.2,0.1-0.3c1.1,0.1,2.3-0.2,3.4-0.6c1.2-0.1,2.6-0.2,3.5-0.6
		c0,0.6,0.6,1,1.3,0.6c1.1-0.9,2.5-1.5,3.6-2.3c0.2,0.4,0.7,0.5,1.2,0.2c2.5-2.7,3.3-6.1,2.2-9.7c-0.2-0.5-0.5-0.7-1-0.7
		c-0.4-1-0.9-1.7-1.7-2c-0.4-0.1-0.7,0-0.9,0.2c-0.6-0.6-1.2-1.1-1.9-1.4c-2.2-1.5-5.3-2.3-9.1-2.3h-2.3c0,0.1,0,0.2,0,0.3
		c-4,0.4-5.7,2.9-6,6.8c0,0.4,0.2,0.8,0.4,1.1c-0.4,2.1-0.2,4.5-0.2,6.3c0,0.4,0.2,0.8,0.4,1.1c0,0.2,0.1,0.4,0.1,0.6
		c0.3,0.6,0.8,1,1.2,1.1c0.2,0.2,0.3,0.3,0.4,0.3c1.2,1.1,1.7,1.3,3.1,1.2c0,0.1,0,0.1,0,0.2l0,0h2.2V37.7z M215.9,46.9
		c-0.2-0.1-0.4-0.3-0.5-0.5c0,0,0.1,0,0.2-0.1c0.3,0.1,0.4,0.3,0.7,0.5v0.4C216.1,47.1,216,47,215.9,46.9z M215.7,19.5
		c0.3-0.3,0.4-0.5,0.7-0.8h-1C215.5,19,215.6,19.3,215.7,19.5z"/>
	<path class="st0" d="M262.3,57c1.2,0,2.5,0.2,3.7,0.3c1.2,0.1,2,0.2,3.3,0.2c0.5,0,1,0,1.5,0c0.9-0.1,2.2-0.3,2.7-1.3
		c0.1-0.2,0.1-0.5,0.1-0.7c1.3-0.8,2.3-1.7,4.1-1.8h0.3v-0.2c0.2-0.8,0.5-1.2,1.1-1.4v-5.3c0-1.7,0.9-2.6,2.6-2.6
		c1.7,0,2.6,0.9,2.6,2.6v11.8c0,1.4-1.2,2.6-2.6,2.6h-26.6v-0.1c-0.4-2.2-3-0.3-4.1,0c-0.1,0-0.2,0.1-0.2,0.1h-4.7
		c-1.7,0-2.6-0.9-2.6-2.6s0.9-2.6,2.6-2.6h3c0.5-1.1,1.4-2.1,2.5-2.8v-3.7c0.4,0.3,1,0,1.2-0.8c0-5.6,0.1-11.2-0.2-16.9
		c-0.2-1.9-0.1-4.1-0.9-5.8v-5.1c-0.8,0.1-1.5-0.4-1.7-1.4v0.1c0,0.2-0.1-0.1-0.2-0.4h-3.3c-1.7,0-2.6-0.9-2.6-2.6s0.9-2.6,2.6-2.6
		h7.1c0.1,0.2,0.3,0.3,0.6,0.4l0,0c2.3,0,4.4,0,6.6-0.5c0.8-0.2,1.4-0.6,2.3-0.8h0.1c0.3,0.2,0.6,0.6,0.7,0.9h7.5
		c-0.1-1.2,1.3-2.3,2.8-1.3c0.3,0.4,0.4,0.9,0.3,1.3h7.2c1.4,0,2.6,1.2,2.6,2.6v10.9c0,1.7-0.9,2.6-2.6,2.6s-2.6-0.9-2.6-2.6v-4.7
		c-0.1-0.1-0.2-0.2-0.2-0.3c-0.2-0.8-0.8-1.3-1.5-1.8c-0.2,0-0.4,0-0.6-0.1c-0.4,0-0.7-0.1-1.1-0.4c-0.4-0.2-0.6-0.6-0.7-0.9h-3.3
		c-0.2,0-0.3-0.1-0.4-0.2c-0.6-0.6-1.3-1.1-2-1.2c-0.7-0.1-1.3,0-2,0c-2.6-0.6-4.9-0.8-5.9,0.2c-0.2,0.4-0.2,0.6-0.1,0.9
		c0,0.1-0.1,0.2-0.1,0.2h-2.3c-0.2,0.2-0.3,0.4-0.4,0.4c-0.2,0.3-0.3,0.7-0.4,1c-0.4,1.1-0.6,2.2-0.7,3.3c-0.3,2.4,0,4.6,0.2,7
		c0.8,0.3,1.3,1,1.8,1.8c0,0.1,0,0.2,0,0.3h4c0.9-2,2.5-3.9,4.6-4.6c0.3-1,1.1-1.5,2.5-1.5c1.7,0,2.6,0.9,2.6,2.6v12
		c0,1.7-0.9,2.6-2.6,2.6c-1.7,0-2.6-0.9-2.6-2.6v-1.2c-0.6,0-1.2-0.3-1.6-1.1c-0.2-0.4-0.4-0.7-0.6-1h-7.5c0,0.1,0,0.2,0,0.3
		c0,0.9-0.5,1.4-1,1.6c0,0.3-0.1,0.5-0.1,0.8c-0.1,0.3-0.3,0.6-0.4,0.7v3.7c0.4-0.1,0.7-0.2,1-0.2c-0.8,2-0.4,5.2,0.4,7.1
		c-0.1,0.4-0.2,0.7-0.4,1c0.8,0.9,2,2,2.6,2.8h1.1C261.4,56.5,261.6,56.9,262.3,57z M256.8,49.3h0.1c0-0.1-0.1-0.1-0.1-0.2V49.3z
		 M259.1,49.4c-0.1-0.4-0.1-0.8-0.1-1.3c0.2,0.2,0.4,0.2,0.7,0.1C259.6,48.7,259.4,49.1,259.1,49.4z M259.1,46.3l0.1,0.2
		c0,0-0.1,0-0.2,0C259.1,46.4,259.1,46.4,259.1,46.3z M268.5,53.3c-0.9-0.6-0.9-1.5-0.4-2.1l0.1,0.2c0.1,0.1,0.2,0.2,0.3,0.2
		s0.2,0.1,0.3,0.1h0.2c0.2,0.8,0.4,1.3,1,1.8C269.5,53.7,269,53.7,268.5,53.3z"/>
	<path class="st0" d="M330.1,47.4c-0.3,0-0.6,0-0.9,0.1c-0.1,0.3-0.2,0.6-0.4,0.8c0.3,0,0.6,0,1-0.1c-1,2.7-2.4,4.9-4.2,6.9
		c-3.3,3.5-7.8,5.5-13.4,6c-0.7-0.1-2.4-0.4-2.9-1c0.2,0,0.6-0.1,0.8-0.1c0.5-0.1,0.4-0.8-0.1-0.8c-0.2,0-0.4,0-0.5,0
		c0,0.1-0.1,0.2-0.3,0.3h-0.5c-0.2,0-0.3,0.1-0.4,0.2l0,0c0,0,0.1,0,0.1-0.1c0,0.1-0.1,0.2-0.1,0.2c0.1,0.6,0.5,1.1,1.1,1.4h-6.2
		c-0.7,0.1-1.4,0.2-1.8,0h-8.8c-1.7,0-2.6-0.9-2.6-2.6s0.9-2.6,2.6-2.6l0,0l0.2-0.6c0.3,0.2,0.7,0.4,1,0.5c0.2-0.2,0.5-0.4,0.8-0.4
		c-0.5-0.2-1-0.5-1.4-0.8c0.2-0.3,0.5-0.6,0.9-1s0.9-0.5,1.4-0.4v-0.8l0,0c0.1-0.2,0.2-0.4,0.2-0.6c0-4.5,0.8-8.8,1-13.4
		c0.1-1.5,0.4-3.5-0.3-4.8l-0.1-0.1V33c0-1.8,0-2-0.3-3.7c0-0.2-0.1-0.3-0.2-0.5c0-0.6-0.1-1.2-0.4-1.7v-5.7c-0.1,0-0.3-0.1-0.4-0.2
		c-0.2-0.2-0.4-0.3-0.5-0.5c-0.8,0.3-1.8-0.2-2-1.4h-0.1c-1.7,0-2.6-0.9-2.6-2.6c0-1.6,0.7-2.5,2.2-2.6c2.2,0.6,4.7,1,7,1.8
		c0.1-0.2,0.4-0.2,0.6,0c0,0.1,0.2,0.1,0.3,0.1h1.2c-0.5-0.2-1-0.4-1.5-0.7c-1.2-0.5-2.7-0.9-4.1-1.3H309c7.2,0,12.8,2.3,16.8,6.9
		c3.7,4.3,5.6,9.8,5.6,16.6C331.6,41.2,331.1,44.5,330.1,47.4z M293.8,57c0,0,0-0.1,0.1-0.1c0,0-0.1-0.1-0.1-0.2
		c-0.1-0.1-0.1-0.2,0-0.4c0,0,0-0.1,0.1-0.1c-1-0.1-1.9-0.2-2.5,0.4c-0.3,0.4,0.1,0.8,0.6,0.6C292,57,292.9,57,293.8,57z
		 M306.9,18.8h-0.2c-0.3,0.1-0.6,0.2-1,0.2c0.5,0.3,1,0.6,1.5,0.9c-0.5,0-1,0-1.4,0l-1.7-0.1c-0.3,0-0.7,0.1-1,0.1
		c0,1-0.4,2.2-1,3.3c-0.4-0.2-1,0-1.1,0.6c-0.1,1.9-0.9,3.6-1,5.5c0.1,0.6,0.5,0.9,1,0.8v11.3c-0.2,0.1-0.4,0.4-0.4,0.6v2.4
		c0,0.4,0.2,0.6,0.4,0.7v1.6c-0.1,0.1-0.1,0.2-0.2,0.3c-0.7,1.5-0.3,3-0.3,4.8c0,0.4,0.2,0.6,0.4,0.7v3.4h7.9c1.1,0,2.1,0,3.1-0.2
		c-0.1-0.1-0.2-0.3-0.2-0.6c0-0.1,0-0.2,0-0.3c1,0.2,1.9,0.8,2.8,1.4l0.7-0.1c0.1,0,0.3-0.1,0.4-0.1c-0.9-0.5-1.7-1.1-2.7-1.6
		c0.4,0,0.6-0.1,0.7-0.4c0.2-0.3,0.2-0.6,0-0.8c0.3,0.1,0.5,0.2,0.6,0.3h-0.1c0,0-0.1,0-0.2,0c0.1,0.1,0.3,0.2,0.4,0.3
		c0,0,0-0.1,0-0.2c0.2,0.1,0.4,0.2,0.4,0.4c-0.1,0-0.2,0-0.2,0l0.2,0.2v-0.1V54c0.3,0.3,0.4,0.7,0.4,1.2c4-1,7-3.2,8.8-6.4
		c0.5,0,1-0.1,1.4-0.2c0.1-0.4,0.2-0.6,0.4-0.8c-0.5,0-1,0.1-1.4,0.2c0.6-1.1,1-2.4,1.4-3.7c1-1.1,1.2-2.9,1.4-4.6
		c-0.5-3.4-1.4-6.6-1.6-10.1c0-0.1,0-0.1,0-0.2c-2.6-5.3-9-7.3-13.8-10.2c-0.2,0.2-0.5,0.3-0.8,0.3c-0.4,0.1-0.8,0.1-1.2,0.2
		c0,0-0.1,0.1-0.1,0.2l-0.1,0.2c-0.2,0-0.3,0-0.5,0C308.2,19.6,307.6,19.2,306.9,18.8z M304.5,17.9c-0.3,0-0.5,0-0.8,0l0.2,0.1
		c0.5,0,1.1,0,1.6,0h-0.1C305.1,18,304.8,18,304.5,17.9z M312.1,54.3c-0.1,0-0.3-0.1-0.4-0.1c0-0.1,0.1-0.2,0.2-0.3
		C312,54.1,312,54.3,312.1,54.3z M317.7,57.4c-0.4,0-0.9,0.1-1.4,0.2c0.2,0.1,0.4,0.1,0.5,0.2c0.2-0.1,0.2-0.1,0.3-0.2
		c0.2-0.1,0.4,0,0.5,0.1C317.7,57.6,317.7,57.5,317.7,57.4z M322.2,33.5c0,0.1,0,0.2,0,0.3c0,0.3,0.4,0.6,0.8,0.7h0.1l0,0
		c-0.4,0.8-1.3,1.2-2.2,0.4L322.2,33.5z M322.3,33.3c0.1-0.2,0.2-0.3,0.4-0.4l-0.5,0.6L322.3,33.3z"/>
	<path class="st0" d="M342.3,50.5c-0.4,0.5-0.7,1.2-0.8,1.9c0.1,0.6,0.5,0.9,1,0.8c0.1,0.5,0.4,0.9,0.8,1c0.5,0.2,0.9,0.1,1.2-0.3
		c0.1-0.1,0.1-0.2,0.2-0.4c0.4,0.4,0.6,0.8,0.6,1.5c0,0.2-0.1,0.3-0.1,0.4l-0.2,0.4h3.5c1.7,0,2.6,0.9,2.6,2.6s-0.9,2.6-2.6,2.6
		h-4.1c-0.1-0.2-0.3-0.4-0.6-0.5c-2,0-3.9,0.1-5.8,0.2c-1.1-0.2-2.1-0.5-2.9-0.9c-0.8-0.3-1.4,0.5-1,1.2h-0.5
		c-1.2-0.2-1.8-1.1-1.8-2.5c0-1.7,0.9-2.6,2.6-2.6h2.5l8-21.7c1.2-2.1,2.5-4.1,2.9-6.7c0-0.3-0.1-0.5-0.2-0.7l2.2-5.9
		c-1.2-0.9-2.4-0.7-3.8-0.7c-1.1-0.1-1.6-0.8-1.6-1.6h-1.6c-1.7,0-2.6-0.9-2.6-2.6c0-0.9,0.2-1.5,0.6-2c0.2,0.2,0.4,0.3,0.7,0.4h0.2
		c0.3,0.6,0.8,1,1.5,1.2c1.6,0.4,3.2-0.8,4.7-0.9c0.2,0,0.4-0.1,0.5-0.2c2,0,4.1,0,6.2,0.2c1.9,0.3,3.9,0.4,5.9,0.3l0,0
		c0,0,0.1,0,0.2,0c0,0.1,0.1,0.2,0.1,0.2l10.4,26c-0.1-0.8,0.7-1.8,1.8-1.7c-0.4,1.1-0.6,2.3-0.2,3.2c-0.3,0-0.6-0.1-0.8-0.4
		c-0.2-0.1-0.3-0.2-0.4-0.3l5.6,13.9h2c1.7,0,2.6,0.9,2.6,2.6s-0.9,2.6-2.6,2.6h-5.6c0-0.4-0.3-0.8-0.9-0.8c-2,0.2-5.2,0.8-5.5,0.8
		h-2c-1.7,0-2.6-0.9-2.6-2.6s0.9-2.6,2.6-2.6l0,0c0,0-0.1-0.1-0.2-0.1c-0.5-0.4-0.7-0.8-0.7-1.2c1.2,0,2.3-0.1,2.6-1.4
		c0,0,0.1,0.1,0.2,0.1c0.6,1,0.3,2.1-0.3,2.6h2.6c0-0.4,0.1-0.7,0.4-1.1c0.3-0.3,0.6-0.6,0.9-0.9L368,47c-0.2,0-0.4,0-0.6,0
		c-0.3,0-0.5-0.1-0.8-0.2c-0.4-0.2-0.8-0.5-0.9-0.9h-19.3l-0.5,1.2l-0.1-0.1c0,0-0.1-0.1-0.2-0.1h-0.1c-0.2-0.1-0.5,0-0.7,0.1
		l-0.2,0.2v0.1c0,0.1-0.1,0.2-0.1,0.2c-0.1,0.6-0.5,1.1-1,1.7c-0.4,0-0.8,0.2-0.9,0.7v0.6H342.3z M354.7,22.1l0.8,0.5
		c-0.1,0.1-0.2,0.2-0.2,0.4v0.1c0,0.2-0.1,0.4-0.2,0.5c0-0.2,0-0.4,0-0.5c0-0.5-0.7-0.6-0.8-0.2c-0.3,0-0.6,0.1-0.8,0.4l0,0l0,0
		c-1.2,2.1-2.6,5.2-3.4,8.2c-0.3,0.5-0.4,1-0.6,1.4c-0.2,0.5-2,3.7-1.6,5c1,3.2,8.5,2.1,10.8,1.9h0.7c1.3,0.1,2.5,0,3-0.6
		c0.4,0.4,0.8,0.7,1.4,0.9c0.8,0.1,1.3-0.7,0.8-1.3c-0.6-0.7-1.4-1.2-1.7-2c-0.3-0.6-1-3.5-1.2-4.1c0,0,0-0.1-0.1-0.1
		c-0.5-3.2-2.2-6.1-2.5-9.3c-0.3-0.8-1.3-0.8-1.6-0.1c-0.8-0.9-1.6-1.6-2.5-2C354.4,21.2,354.2,21.8,354.7,22.1z M351.6,35.5
		c-0.1,0.1-0.2,0.1-0.3,0.2c0.1-0.1,0.1-0.2,0.2-0.3L351.6,35.5z M351.9,31.8c0.1-0.3,0.3-0.6,0.4-1c0,0.1,0,0.2,0.1,0.3
		C352.3,31.4,352.1,31.5,351.9,31.8z M355.1,35.7c0,0,0,0.1,0.1,0.1c0,0,0,0.1,0,0.2l-0.2-0.1L355.1,35.7c-0.1,0-0.1-0.1,0-0.1
		L355.1,35.7z M364.6,40.7L364.6,40.7h0.5H364.6z"/>
	<path class="st0" d="M419,53.5c0.1,0.8,0.6,1,1.1,0.8V56c0,2.1-2.5,3.8-7.4,5c-3.5,0.9-6.5,1.3-8.9,1.3c-6.6,0-12.1-2.4-16.5-7.2
		c-4.3-4.7-6.4-10.5-6.4-17.3c0-7.4,1.8-13.4,5.5-18c3.9-4.9,9.3-7.3,16.2-7.3c3.3,0,6.3,0.6,8.8,1.7c0.3-0.4,0.8-0.7,1.5-0.7
		c0.9,0,1.8,0,2.4,0.2c0.4-0.7,1.2-1,2.3-1c1.7,0,2.6,0.9,2.6,2.6v2c-0.3-0.1-0.6,0-0.9,0.2c-1.2,1.6-0.5,5.1-0.5,7.1
		c0.1,0.9,0.9,1,1.4,0.6V26c0,1.5-0.8,2.3-2.3,2.3c-0.8,0-1.6-0.3-2.2-0.8c-0.7-0.6-1-1.4-1-2.4v-0.4c-0.3,0-0.5-0.1-0.8-0.2
		c-2.2-1.3-3.1-3.4-4.3-5.4c0,0-0.1-0.1-0.1-0.2l-0.7-0.2c-0.4-0.3-0.8-0.5-1.3-0.7c-0.3-1-1.4-1.1-2.3-1.1c-0.5-0.1-1-0.2-1.6-0.3
		c-0.8-0.1-1.3-0.2-1.8,0c-0.6,0-1.7,0-2.5,0.3c-0.4,0-0.9-0.1-1.3-0.1c0-1-1.1-1.3-1.5-0.5c-0.3,0.8-1,1.3-1.4,1.9
		c-0.1,0.2-0.2,0.4-0.2,0.4c-1,0.4-1.4,1.2-1.9,2c-0.1,0-0.1,0.1-0.2,0.2c-0.3,0-0.6,0.1-1,0.1c-0.6,0.3-0.8,0.8-0.6,1.1
		c-0.4,0.3-0.7,0.6-1,1c-0.9,1-2.8,3.2-2,4.7l0,0c-1.2,2.9-1.7,6.2-1.7,10.1c0.7,0.7,0.9,2,1.2,2.7c0.3,1-0.1,1.8-0.7,2.1l0.2,1.1
		c0.2,0.2,0.4,0.5,0.6,0.9c0.5,0.5,1.8,3.7,3.1,4.5c0.4,0.8,0.4,1.5,0.1,2c0.2,0.2,0.4,0.4,0.6,0.6c3.4,3.7,7.6,5.5,12.6,5.5
		c3.6,0,6.6-0.5,9-1.4c-0.3-0.4-0.5-1-0.4-1.6c0.4-1.1,1-1.9,2.3-2h0.2v-3.9c-1-1.4-2.9-2.3-3.9-3.4H405c-1.7,0-2.6-0.9-2.6-2.6
		s0.9-2.6,2.6-2.6h7.2c0,0,0.1,0,0.1,0.1c0.1,0.3,0.4,0.5,0.8,0.5c0.8,0,1.4,0.1,2.2,0.1c0.1,0,0.2,0,0.4,0c1.2,1.6,5.1,1.3,5.6-0.7
		v-0.1h0.8c1.7,0,2.6,0.9,2.6,2.6s-0.9,2.6-2.6,2.6h-0.5c0.3,0.5,0.3,1.2-0.3,1.9l0,0l0,0c-0.1,0.3-0.2,0.6-0.3,0.9
		c-0.1,0.4-0.3,0.6-0.5,0.8v2.9c-0.4-0.2-1,0.1-1.1,0.7v1.5H419z M396.7,18.3c0.2-0.1,0.4-0.2,0.6-0.2c-0.4,0.2-0.7,0.4-1.2,0.6
		l0.3-0.3L396.7,18.3z M412.4,28.7c0.3,0.5,0.4,1,0.3,1.6c-0.8-0.4-1.5,0.6-1,1.2c-0.4,0.1-0.9,0.1-1.4-0.3
		c-1.3-0.8-0.7-2.4,0.4-2.7v0.1c0.1,1,1.4,1.1,1.6,0.1C412.3,28.7,412.4,28.7,412.4,28.7z"/>
	<path class="st0" d="M466.7,18.3c0,0.5-0.2,0.9-0.4,1.2c0.6,0.8,1.2,1.6,1.7,2.5c2.6,4.5,3.9,9.7,3.9,15.6s-1.3,11.1-3.9,15.5
		c-3.6,6.1-9.1,9.2-16.6,9.2s-13.1-3.1-16.8-9.1c-2.8-4.5-4.2-9.8-4.2-15.9c0-6,1.4-11.2,4.1-15.7c3.7-5.9,9.3-8.9,16.8-8.9
		c5.2,0,9.4,1.5,12.8,4.5c0.8-0.8,2.2-0.4,2.7,1v0.1H466.7z M464.1,47.3c0.8-2.2,1.3-5.2,1.4-6.3c0-0.9-1.1-1.3-1.5-0.4
		c0,0.1-0.1,0.2-0.1,0.2c-0.1,0.2-0.2,0.4-0.3,0.8c0.1-0.8,0.2-1.6,0.2-2.3v-0.4l-0.1-0.2c-0.1-0.2-0.2-0.2-0.3-0.3
		c0,0-0.1,0-0.1-0.1c-0.1,0-0.2,0-0.3,0c-0.1,0-0.2,0-0.2,0c0.2-1.6,0.4-3.3,0.5-4.9c0.1-0.8,0.6-1.2,1-1.4
		c-0.1-1.7-0.2-3.3-0.2-4.7c0-0.3,0.1-0.6,0.3-0.8c-0.3-0.6-0.6-1.2-0.9-1.8c-2.7-4.5-6.8-6.8-12.2-6.8c-5.5,0-9.6,2.2-12.4,6.5
		c-2.2,3.5-3.3,7.8-3.3,12.9s1.1,9.5,3.4,13.1c0.2,0.3,0.4,0.6,0.6,0.9c0.7,0,1.4,0.4,1.7,1.4v0.6c1.2,1.2,2.6,2.1,4.1,2.7
		c0.3-0.1,0.5-0.2,0.8-0.2h2.6l0,0c1.3-0.1,2.5-0.2,3.7-0.4c-0.2,0.6,0.1,1,0.8,1.1c2,0.1,4.3-1.1,6-2.2c0.1-0.2,0.2-0.4,0.2-0.6
		c0.3-0.1,0.4-0.2,0.6-0.4c1.7-0.3,2.3-1.8,2.5-3.5c0.5-0.5,1-1.3,1.3-2.2C464,47.4,464,47.4,464.1,47.3L464.1,47.3z M448.8,48.7
		L448.8,48.7c-0.2,0.1-0.4,0.1-0.5,0c-1,0.1-1.2,1.4-0.1,1.6c0.1,0,0.2,0,0.3,0c0.3,0,0.4,0.1,0.6,0.2c-0.3,0.9-1.3,1.4-2.3,0.6
		C444.9,49.8,446.7,47.4,448.8,48.7z M466.7,60c-0.8-1.2,0.2-2.7,1.7-2.4C468,58.6,467.3,59.2,466.7,60z M468.9,60h0.1
		c-0.3,0.3-0.4,0.5-0.7,0.8c-0.1,0-0.2,0-0.3,0l0.5-0.6C468.7,60.1,468.8,60,468.9,60z"/>
	<path class="st0" d="M517.7,53.5c0.1,0.8,0.6,1,1.1,0.8V56c0,2.1-2.5,3.8-7.4,5c-3.5,0.9-6.5,1.3-8.9,1.3c-6.6,0-12.1-2.4-16.5-7.2
		c-4.3-4.7-6.4-10.5-6.4-17.3c0-7.4,1.8-13.4,5.5-18c3.9-4.9,9.3-7.3,16.2-7.3c3.3,0,6.3,0.6,8.8,1.7c0.3-0.4,0.8-0.7,1.5-0.7
		c0.9,0,1.8,0,2.4,0.2c0.4-0.7,1.2-1,2.3-1c1.7,0,2.6,0.9,2.6,2.6v2c-0.3-0.1-0.6,0-0.9,0.2c-1.2,1.6-0.5,5.1-0.5,7.1
		c0.1,0.9,0.9,1,1.4,0.6V26c0,1.5-0.8,2.3-2.3,2.3c-0.8,0-1.6-0.3-2.2-0.8c-0.7-0.6-1-1.4-1-2.4v-0.4c-0.3,0-0.5-0.1-0.8-0.2
		c-2.2-1.3-3.1-3.4-4.3-5.4c0,0-0.1-0.1-0.1-0.2l-0.7-0.2c-0.4-0.3-0.8-0.5-1.3-0.7c-0.3-1-1.4-1.1-2.3-1.1c-0.5-0.1-1-0.2-1.6-0.3
		c-0.8-0.1-1.3-0.2-1.8,0c-0.6,0-1.7,0-2.5,0.3c-0.4,0-0.9-0.1-1.3-0.1c0-1-1.1-1.3-1.5-0.5c-0.3,0.8-1,1.3-1.4,1.9
		c-0.1,0.2-0.2,0.4-0.2,0.4c-1,0.4-1.4,1.2-1.9,2c-0.1,0-0.1,0.1-0.2,0.2c-0.3,0-0.6,0.1-1,0.1c-0.6,0.3-0.8,0.8-0.6,1.1
		c-0.4,0.3-0.7,0.6-1,1c-0.9,1-2.8,3.2-2,4.7l0,0c-1.2,2.9-1.7,6.2-1.7,10.1c0.7,0.7,0.9,2,1.2,2.7c0.3,1-0.1,1.8-0.7,2.1l0.2,1.1
		c0.2,0.2,0.4,0.5,0.6,0.9c0.5,0.5,1.8,3.7,3.1,4.5c0.4,0.8,0.4,1.5,0.1,2c0.2,0.2,0.4,0.4,0.6,0.6c3.4,3.7,7.6,5.5,12.6,5.5
		c3.6,0,6.6-0.5,9-1.4c-0.3-0.4-0.5-1-0.4-1.6c0.4-1.1,1-1.9,2.3-2h0.2v-3.9c-1-1.4-2.9-2.3-3.9-3.4h-6.4c-1.7,0-2.6-0.9-2.6-2.6
		s0.9-2.6,2.6-2.6h7.2c0,0,0.1,0,0.1,0.1c0.1,0.3,0.4,0.5,0.8,0.5c0.8,0,1.4,0.1,2.2,0.1c0.1,0,0.2,0,0.4,0c1.2,1.6,5.1,1.3,5.6-0.7
		v-0.1h0.8c1.7,0,2.6,0.9,2.6,2.6s-0.9,2.6-2.6,2.6h-0.5c0.3,0.5,0.3,1.2-0.3,1.9l0,0l0,0c-0.1,0.3-0.2,0.6-0.3,0.9
		c-0.1,0.4-0.3,0.6-0.5,0.8v2.9c-0.4-0.2-1,0.1-1.1,0.7v1.5H517.7z M495.4,18.3c0.2-0.1,0.4-0.2,0.6-0.2c-0.4,0.2-0.7,0.4-1.2,0.6
		l0.3-0.3L495.4,18.3z M511.1,28.7c0.3,0.5,0.4,1,0.3,1.6c-0.8-0.4-1.5,0.6-1,1.2c-0.4,0.1-0.9,0.1-1.4-0.3
		c-1.3-0.8-0.7-2.4,0.4-2.7v0.1c0.1,1,1.4,1.1,1.6,0.1C511.1,28.7,511.1,28.7,511.1,28.7z"/>
	<path class="st0" d="M551.6,34c0-0.1,0-0.3-0.1-0.4c0.4-0.4,0.7-0.8,1-1.4c2.8-1.8,3.9-6.6,5.7-9.3c0.2-0.4,0.1-0.7-0.1-0.9
		c0.1-0.6,0.2-1.4,0.1-1.8c-0.2,0-0.3-0.1-0.3-0.1c-0.6-0.3-0.9-0.8-1-1.2c-1.6-0.1-2.3-1-2.3-2.6c0-1.7,0.8-2.6,2.5-2.6
		c0.1,0.1,0.3,0.2,0.5,0.2s0.4,0,0.6,0.1c0.2-0.2,0.4-0.4,0.8-0.4h4.3c0.6,0.2,0.8,0.6,0.6,1h1.6c0.1-0.2,0.2-0.4,0.1-0.7
		c-0.1-0.1-0.1-0.1-0.2-0.2h3.3c1.7,0,2.6,0.9,2.6,2.6s-0.9,2.6-2.6,2.6h-2.3l-2.5,4.1c-0.1-0.6-0.8-0.9-1.4-0.4
		c-1.1,1.1-1.4,3.3-2.1,4.6l-0.5,1c-2.3,3-4.6,7.2-5.1,10.2l-2,3.3c0.1,2.4,0.3,4.7,0.5,7.2c0.5-0.2,1.1-0.2,1.7,0.3
		c0.8,1.4-0.1,3.2-1.5,2.8c0,0.6,0,1.1,0.1,1.6c0,0.6-0.2,1-0.6,1.3c0.8,0.5,1.5,0.9,2.3,1c0.3,0.1,0.5,0.2,0.7,0.4h5.1
		c1.7,0,2.6,0.9,2.6,2.6s-0.9,2.6-2.6,2.6H551c-3.1-0.6-6.1-0.6-9.3-0.1l0,0c-1,0.1-0.8,0.1-2.3,0.1h-1.1c-1.7,0-2.6-0.9-2.6-2.6
		s0.9-2.6,2.6-2.6h5.5c0.3-1.1,1.4-2,3.1-2c0,0,0.1,0,0.2,0.1v-3.9c0.2-2.9,0.6-5.6,0.7-8.5c-0.2-0.6-0.8-0.8-1.2-0.5l-0.8-1.3
		c0.5,0.3,1,0,1.2-0.8c-1.2-4.3-6.4-12-10.6-15.3l-2.2-3.7c-0.8-0.4-1.5-0.8-1.8-1.6h-1.6c-1.7,0-2.6-0.9-2.6-2.6c0-1,0.3-1.8,1-2.2
		c2.7,0.6,7.8,0.3,8.9,0.3c0.4-0.1,0.7-0.4,0.7-0.7h1.9c0,0.4,0.3,0.6,0.8,0.7h2.1c0.4-0.1,0.7-0.4,0.7-0.7c1.6,0.1,2.3,1,2.3,2.6
		c0,1.7-0.9,2.6-2.6,2.6h-2c-0.2,0.6-0.6,1-1.4,1.1c-0.3,0-0.4,0-0.7,0l1.1,1.9c-0.2,0.2-0.2,0.4-0.3,0.6c0.5,3.8,3.3,7.4,5.8,10.1
		c0.2,0.3,0.4,0.4,0.7,0.3c0.6,1.1,1.7,1.8,2.8,1.7h0.2C550.5,35.2,551.5,35.1,551.6,34z M539.5,29.6c2.6,3.2,4.9,7.1,5.7,9.7
		L539.5,29.6z M542.7,24.1c0,0,0.1,0,0.1-0.1c0.3,0.4,0.5,0.7,0.7,1.1c0,0.1,0,0.2,0,0.2c0.2,0.8,0.6,1.2,1,1.9v0.1c0,0,0,0,0,0.1
		s0.1,0.1,0.2,0.2v0.2C544,26.7,543.2,25.4,542.7,24.1z"/>
</g>
<g>
	<g>
		<path class="st0" d="M23.6,62.1c0-0.3,0-0.6,0-0.8c0-0.1,0-0.2,0-0.4c0.1-0.1,0.2-0.2,0.4-0.3c0.1,0.1,0.2,0.2,0.3,0.4
			c0,0.6,0,1.2,0.1,1.7c0,0.5,0.5,0.5,0.8,0.1c0.2-0.6,0.1-1.3-0.1-2v-0.5c-0.1-0.3-0.4-0.4-0.5-0.3c-0.1-0.1-0.2-0.2-0.3-0.2
			c-0.2-0.1-0.2-0.1-0.4,0c-0.1,0.1-0.2,0.1-0.3,0.2v-3.7c-0.2,0.1-0.5,0-0.6-0.3v-0.9c0-0.4,0.4-0.5,0.6-0.3V50
			c-0.1-0.1-0.1-0.1-0.1-0.3v-1.5c-0.1,0-0.2-0.1-0.2-0.4c0-0.8,0-1.7,0-2.5c0-0.2,0.2-0.3,0.4-0.3V23.8c0.1,1.1,0.2,2.2,0.3,3.3
			c0.1,0.5,0.8,0.5,0.8,0c-0.2-3.3-0.8-6.6-0.9-9.9c-0.1,0.4-0.6,0.4-0.7-0.1c-0.1-1.7-0.7-1.5,0.7-2.2c0-0.7,0.1-1.4,0.2-2.2
			c0.1-1.2,0.5-3,1.6-3.9c0.5-0.4,1.2-0.4,1.8-0.6c0.4-0.2,0.3-0.7-0.2-0.7c-0.7,0.2-1.7,0.1-2.1,0.7c-0.5,0.6-1.1,1.1-1.3,1.8
			c-0.1,0.3-0.1,0.5-0.2,0.6V10c0-1.3,1.2-2.5,2.5-2.5H36c1.7,0,2.5,0.8,2.5,2.5s-0.8,2.5-2.5,2.5h-1c0-0.1,0-0.2,0-0.4
			c-0.4-0.8-2.9-1.6-3.6-1.1c-0.3,0.2-0.8,1-1,1c0,0-0.1,0-0.1,0c-0.1-0.4-0.1-0.6-0.1-1c0-0.5-0.7-0.6-0.8-0.1
			c0,0.4-0.1,1.1,0.2,1.5h-1.2v5c0.2,0,0.4,0.1,0.4,0.5c-0.1,0.3-0.3,0.4-0.4,0.6v20.4c-0.4-0.1-0.7,0.1-0.5,0.5
			c0.3,0.6,0.4,1.2,0.5,1.9c-0.1,1.3-0.3,2.7-0.3,4.1v0.3c0,0.1,0.1,0.2,0.1,0.3c0.1,0,0.1,0.1,0.2,0.1h0v14.7
			c0.2,0,0.4,0.1,0.4,0.5v0.7h0.4c-0.1,0.2,0,0.4,0.4,0.5c1.7,0,3.5-0.2,5.3-0.2c0.2,0,0.3-0.1,0.3-0.3h0.8c1.7,0,2.5,0.8,2.5,2.5
			c0,1.7-0.8,2.5-2.5,2.5h-3v0.1c0,0.5-0.7,0.5-0.8,0v-0.1h-6.2c-0.6,0-1.3-0.3-1.8-0.8c-0.4-0.4-0.7-1-0.7-1.5
			c0.1,0,0.2-0.1,0.2-0.4c0-0.8,0-1.4,0-2.1c0,0.2-0.1,0.4-0.2,0.6c-0.2,0.5-0.8,0.4-0.7-0.2c0-0.2,0.2-0.6,0.2-0.6
			C22.9,61.8,23.4,61.8,23.6,62.1z M23.6,16.8v-0.8c-0.1,0-0.1,0-0.1,0.1C23.5,16.3,23.6,16.5,23.6,16.8z M28.1,52.6
			c0.2-0.5-0.4-0.8-0.7-0.4c-1.3,2.4,0,5.4,0.2,7.9c0.1,0.5,0.8,0.5,0.8,0C28.2,57.9,26.9,54.8,28.1,52.6z M30.8,60.5h0.1
			c0.5,0,0.6,0.7,0.1,0.8h-0.2C30.3,61.2,30.3,60.5,30.8,60.5z M31.3,12.5H31c0.2-0.3,0.4-0.6,0.8-0.7c0.3-0.1,1,0,1.3,0.1
			c0.3,0.1,0.6,0.1,0.9,0.3c-0.7,0.1-1.5,0.1-2.3,0.1C31.5,12.2,31.3,12.4,31.3,12.5z M32.3,58.3c0,0,0,0.2,0,0.4
			c0.2-0.2,0.4-0.5,0.5-0.6C32.9,58,33,58,33.1,58c0.1-0.2,0.4-0.4,0.6-0.1c0.3,0.4-0.1,0.7-0.4,0.6c0,0,0,0.1-0.1,0.1
			c-0.4,0.3-0.6,0.8-1,1c-0.1,0-0.2,0-0.4-0.1c-0.4-0.3-0.4-0.7-0.4-1.2C31.6,57.9,32.2,57.9,32.3,58.3z"/>
		<path class="st0" d="M112.1,62.3c0,0,0.2,0.4,0.2,0.6c0.1,0.5-0.5,0.6-0.7,0.2c0-0.2-0.1-0.4-0.2-0.6c0,0.7,0,1.3,0,2.1
			c0,0.2,0.1,0.3,0.2,0.4c0,0.6-0.3,1.1-0.7,1.5c-0.5,0.5-1.1,0.8-1.8,0.8h-6.2v0.1c-0.1,0.5-0.8,0.5-0.8,0v-0.1h-3.1
			c-1.7,0-2.5-0.8-2.5-2.5c0-1.7,0.8-2.5,2.5-2.5h0.8c0,0.1,0.1,0.2,0.3,0.3c1.8,0,3.5,0.2,5.3,0.2c0.4-0.1,0.5-0.3,0.4-0.5h0.4
			v-0.7c0-0.3,0.2-0.5,0.4-0.5V46.3h0c0.1,0,0.1-0.1,0.2-0.1c0-0.1,0.1-0.1,0.1-0.3v-0.3c0-1.4-0.1-2.8-0.3-4.1
			c0-0.7,0.1-1.3,0.5-1.9c0.2-0.4-0.1-0.7-0.5-0.5V18.5c-0.1-0.2-0.3-0.3-0.4-0.6c0-0.3,0.2-0.5,0.4-0.5v-5h-1.2
			c0.3-0.4,0.2-1.1,0.2-1.5c-0.1-0.5-0.8-0.4-0.8,0.1c0,0.4,0,0.6-0.1,1c0,0,0,0-0.1,0c-0.2,0-0.8-0.8-1-1c-0.7-0.5-3.2,0.3-3.6,1.1
			c0,0.1,0,0.3,0,0.4h-1c-1.7,0-2.5-0.8-2.5-2.5s0.8-2.5,2.5-2.5H109c1.3,0,2.5,1.2,2.5,2.5v0.7c0-0.1-0.1-0.3-0.2-0.6
			c-0.1-0.7-0.8-1.2-1.3-1.8c-0.4-0.6-1.4-0.5-2.1-0.7c-0.5,0-0.6,0.5-0.2,0.7c0.6,0.2,1.3,0.2,1.8,0.6c1.1,0.8,1.5,2.7,1.6,3.9
			c0.1,0.7,0.1,1.4,0.2,2.2c1.4,0.7,0.8,0.5,0.7,2.2c-0.1,0.5-0.6,0.5-0.7,0.1c-0.1,3.3-0.7,6.7-0.9,9.9c0,0.5,0.7,0.5,0.8,0
			c0.1-1.1,0.2-2.2,0.3-3.3v21.2c0.2,0,0.4,0.1,0.4,0.3c0,0.8,0,1.7,0,2.5c0,0.2-0.1,0.3-0.2,0.4v1.5c0,0.1-0.1,0.2-0.1,0.3v4.9
			c0.2-0.1,0.5-0.1,0.6,0.3v0.9c0,0.3-0.4,0.4-0.6,0.3v3.7c-0.1-0.1-0.2-0.1-0.3-0.2c-0.1-0.1-0.2-0.1-0.4,0c-0.1,0-0.2,0.1-0.3,0.2
			c-0.2-0.1-0.5,0-0.5,0.3v0.5c-0.3,0.6-0.3,1.3-0.1,2c0.2,0.4,0.7,0.4,0.8-0.1c0.1-0.6,0.1-1.2,0.1-1.7c0.1-0.2,0.1-0.3,0.3-0.4
			c0.1,0.1,0.3,0.2,0.4,0.3c0,0.1,0,0.2,0,0.4c0,0.3,0,0.5,0,0.8C111.6,61.8,112.1,61.8,112.1,62.3z M103.3,12.2
			c-0.8,0-1.5,0.1-2.3-0.1c0.3-0.1,0.6-0.2,0.9-0.3c0.3-0.1,1-0.2,1.3-0.1c0.4,0.1,0.5,0.5,0.8,0.7h-0.3
			C103.7,12.4,103.5,12.2,103.3,12.2z M103.5,58.4c0,0.5,0,0.9-0.4,1.2c-0.1,0.1-0.2,0.1-0.4,0.1c-0.4-0.2-0.7-0.6-1-1
			c0-0.1,0-0.1-0.1-0.1c-0.3,0.1-0.6-0.3-0.4-0.6c0.2-0.2,0.6-0.1,0.6,0.1c0.1,0,0.2,0,0.4,0.1c0.1,0.1,0.3,0.4,0.5,0.6
			c0-0.1,0-0.4,0-0.4C102.8,57.9,103.4,57.9,103.5,58.4z M104.2,61.3H104c-0.5-0.1-0.4-0.8,0.1-0.8h0.1
			C104.8,60.5,104.8,61.2,104.2,61.3z M106.6,60.2c0,0.5,0.7,0.5,0.8,0c0.1-2.5,1.5-5.5,0.2-7.9c-0.3-0.4-0.9-0.1-0.7,0.4
			C108.1,54.8,106.8,57.9,106.6,60.2z M111.6,16c0,0-0.1,0-0.1-0.1v0.8C111.4,16.5,111.5,16.3,111.6,16z"/>
	</g>
	<g>
		<path class="st0" d="M69.3,54.5c0,0,0-0.1,0-0.1c0.6,0,1.1-0.2,1.5-0.5c0.4,0.7,0.3,1.4,0,1.9c2.7-0.3,4.8-1.1,6.4-2.3
			c0.5-0.4,1-0.8,1.3-1.3c-0.1,0-0.2-0.1-0.2-0.1c-1.7-1.1-0.1-3.4,1.7-2.5c0.2-0.8,0.3-1.7,0.3-2.6c0-0.7-0.1-1.3-0.3-1.9
			c-0.9,0.4-2,0-2.2-1.4c0-0.5,0-0.9,0.1-1.3c-1-0.8-2.4-1.4-4.1-1.9c-0.7-0.5-1.5-0.9-2.2-1.4c-0.4-0.3-1.4-0.6-2-1.1
			c-0.1-0.3-0.4-0.5-0.9-0.5c0,0-0.1,0-0.1,0c-0.1,0-0.2,0.1-0.3,0.1c-2.6-0.9-5.4-1.3-9-1.4c-0.4,0-0.6,0.2-0.7,0.4h-0.1
			c-0.9-0.6-1.9-1.2-2.9-1.7c-0.1-0.1-0.1-0.1-0.2-0.3c-0.2-0.2-0.4-0.3-0.6-0.4c-1.9-1.9-2.9-4.4-2.9-7.5c0-4.1,1.4-7.4,4.4-9.9
			S63.1,13,68.1,13c3,0,5.9,0.6,8.5,2.1c0.4-0.9,1.4-1.2,2.2-0.7c0.3-1,1.1-1.4,2.3-1.4c1.7,0,2.5,0.8,2.5,2.5v0.5
			c-0.7-0.3-1.2,0.6-0.8,1.2c0,0.3,0.3,2,0.4,2.3c0.1,1,0.3,2.1,0.5,3l0,2.7c0,1.7-0.8,2.6-2.5,2.6c-1.7,0-2.5-0.9-2.5-2.6
			c0-0.8-0.3-1.5-0.7-2.3c-0.7,1.2-2.5,0.9-2.7-0.9v-0.3c0.1-0.5,0.3-0.8,0.6-1.1c-0.1-0.1-0.2-0.1-0.3-0.2
			c-2.2-1.6-4.7-2.3-7.4-2.3c-3.7,0-6.6,0.9-8.6,2.6c-1.2,1-1.9,2.3-2.4,3.7l0.1,0.1c0,0.1-0.1,0.3-0.1,0.4c0,0.2,0.1,0.4,0.2,0.5v0
			l-0.1,0.2c-0.1,0.3-0.1,0.6-0.1,0.9c0,0.4,0,0.7,0,1v0.1c0.2,0.9,1.2,1,1.5,0.1c0.1,0.1,0.4,0.3,0.6,0.3c0,0.1-0.1,0.1-0.1,0.3
			c0.1,0.1,0.3,0.4,0.4,0.7v0.2c0,0.8-0.4,1.3-0.9,1.5c1,0.9,2.3,1.7,4.1,2.2c-0.1,0.1-0.2,0.3-0.3,0.4c-0.2,0.9,0.8,1.4,1.3,0.8
			c0.3,0,0.5,0,0.7,0c0.6,0,1,0,1.3,0c1.8,1,4,1.5,5.9,2.1c2.8,0.9,5.6,1.8,8.5,2.7c0,0.3,0.3,0.6,0.7,0.6c0.1,0.1,0.2,0.2,0.4,0.2
			c0.4,0.1,0.8,0.1,1.1,0.3c1.1,0.6,1.9,2.2,2.7,4c0.2,0.9,0.3,1.8,0.3,2.8c0,4.5-1.7,8.1-5.1,10.6c-3.1,2.3-7,3.4-11.6,3.4
			c-2.9,0-5.5-0.3-7.8-1c-0.2,0.1-0.3,0.1-0.5,0.2H60c-0.9-0.1-1.3-0.5-1.5-1.1c0,0-0.1,0-0.1-0.1v0.2c-0.1,1.2-1.3,1.6-2.3,1.5H56
			c-0.1,0-0.1,0-0.1,0c-0.4,0.5-1.1,0.8-2,0.8c-1.7,0-2.5-0.8-2.5-2.5l0-1.8c0.1-0.1,0.2-0.3,0.3-0.6c0.1-0.1,0.1-0.1,0.2-0.2
			c0.8-1.9,1.5-4.7,0.4-6.7c-0.3-0.3-0.6-0.5-0.9-0.3l0-2c0-1.7,0.8-2.6,2.5-2.6s2.5,0.9,2.5,2.6c0,5.8,4.1,8.7,12.2,8.7
			c-0.2-0.2-0.4-0.5-0.4-0.7C68.5,55.7,69.2,55.3,69.3,54.5z M64.6,29.3c0.5-0.1,0.7-0.5,0.7-0.9h0.2c0,1.2-1,2.3-2.3,1.3
			c-0.4-0.3-0.6-0.6-0.7-1.1C62.9,29.2,63.9,29.3,64.6,29.3z M66.1,28.9c0-0.1,0-0.1,0.1-0.2c0,0,0,0,0,0.1L66.1,28.9z M66.7,30.5
			c-0.3-0.2-0.5-0.4-0.6-0.6l0.1,0.1c0.3,0.2,0.5,0.5,0.9,0.8C67,30.6,66.8,30.6,66.7,30.5z M67,25.9c0.1-0.1,0.4-0.3,0.6-0.4
			c0,0.1,0,0.2,0,0.4c0,0-0.1,0.1-0.1,0.1C67.3,26.1,67.2,26,67,25.9z M82.9,17.1L82.9,17.1L82.9,17.1L82.9,17.1z"/>
	</g>
</g>
</svg>
