<?xml version="1.0" encoding="utf-8"?>
<!-- Generator: Adobe Illustrator 21.1.0, SVG Export Plug-In . SVG Version: 6.00 Build 0)  -->
<svg version="1.1" id="Layer_1" xmlns="http://www.w3.org/2000/svg" xmlns:xlink="http://www.w3.org/1999/xlink" x="0px" y="0px"
	 viewBox="0 0 466.2 418.2" style="enable-background:new 0 0 466.2 418.2;" xml:space="preserve">
<style type="text/css">
	.st0{fill:#FFFFFF;}
</style>
<g>
	<g>
		<path class="st0" d="M50.9,396.3c0,0,0-0.1,0-0.1c0.7,0,1.2-0.2,1.5-0.6c0.4,0.8,0.3,1.5,0,2c2.8-0.3,5-1.1,6.8-2.4
			c0.5-0.4,1-0.8,1.4-1.3c-0.1,0-0.2-0.1-0.2-0.2c-1.7-1.2-0.1-3.6,1.8-2.6c0.2-0.8,0.4-1.7,0.4-2.7c0-0.7-0.1-1.4-0.3-2
			c-0.9,0.4-2.1,0-2.3-1.5c0-0.5,0-0.9,0.1-1.4c-1-0.8-2.5-1.5-4.2-2c-0.8-0.5-1.5-1-2.3-1.5c-0.4-0.3-1.4-0.7-2.1-1.1
			c-0.1-0.4-0.4-0.6-0.9-0.6c0,0-0.1,0-0.1,0c-0.1,0-0.2,0.1-0.3,0.2c-2.7-1-5.7-1.4-9.4-1.5c-0.4,0-0.6,0.2-0.8,0.4h-0.2
			c-1-0.6-1.9-1.3-3.1-1.8c-0.1-0.1-0.1-0.2-0.2-0.3c-0.2-0.2-0.4-0.4-0.6-0.4c-2-2-3-4.6-3-7.9c0-4.3,1.5-7.8,4.6-10.4
			c3.1-2.6,7.2-3.9,12.4-3.9c3.2,0,6.1,0.7,8.9,2.2c0.4-1,1.4-1.2,2.3-0.7c0.3-1,1.1-1.5,2.5-1.5c1.7,0,2.6,0.9,2.6,2.6v0.5
			c-0.8-0.3-1.3,0.6-0.9,1.2c0,0.3,0.2,2,0.4,2.4c0.1,1.1,0.2,2.2,0.5,3.2v2.8c0,1.8-0.9,2.7-2.6,2.7c-1.7,0-2.6-0.9-2.6-2.7
			c0-0.8-0.2-1.6-0.7-2.4c-0.8,1.2-2.7,0.9-2.9-0.9v-0.3c0.1-0.5,0.3-0.8,0.6-1.1c-0.1-0.1-0.2-0.2-0.3-0.2
			c-2.3-1.6-4.9-2.5-7.8-2.5c-3.9,0-6.9,0.9-9,2.7c-1.2,1.1-2,2.4-2.5,3.9l0.1,0.1c0,0.2-0.1,0.3-0.1,0.4c0,0.2,0.1,0.4,0.2,0.5v0
			l-0.1,0.2c-0.1,0.3-0.2,0.6-0.2,1s0,0.7,0,1v0.1c0.2,1,1.3,1,1.6,0.1c0.2,0.2,0.4,0.3,0.6,0.4c0,0.1-0.1,0.2-0.2,0.3
			c0.1,0.2,0.3,0.4,0.4,0.7v0.2c0,0.8-0.4,1.3-1,1.6c1,1,2.4,1.8,4.2,2.4c-0.2,0.2-0.2,0.3-0.3,0.4c-0.2,1,0.8,1.4,1.3,0.8
			c0.3,0,0.5,0,0.8,0c0.6,0,1,0,1.4,0c1.9,1.1,4.1,1.6,6.2,2.3c2.9,1,5.9,1.9,8.9,2.9c0,0.3,0.3,0.6,0.7,0.6
			c0.1,0.1,0.2,0.2,0.4,0.2c0.4,0.1,0.8,0.1,1.2,0.3c1.1,0.7,2,2.3,2.8,4.2c0.2,0.9,0.3,1.9,0.3,2.9c0,4.7-1.8,8.4-5.4,11
			C59,401.8,55,403,50.1,403c-3.1,0-5.7-0.4-8.1-1.1c-0.2,0.1-0.4,0.2-0.6,0.2h-0.3c-0.9-0.1-1.4-0.5-1.6-1.1c0,0-0.1,0-0.1-0.1v0.2
			c-0.2,1.2-1.3,1.6-2.4,1.5h-0.1c-0.1,0-0.1,0-0.2,0c-0.4,0.6-1.1,0.8-2.1,0.8c-1.7,0-2.6-0.9-2.6-2.6v-1.9
			c0.2-0.1,0.2-0.3,0.3-0.6c0.1-0.1,0.1-0.1,0.2-0.2c0.8-2,1.6-4.9,0.5-7c-0.3-0.4-0.6-0.5-1-0.4v-2.1c0-1.8,0.9-2.7,2.6-2.7
			c1.7,0,2.6,0.9,2.6,2.7c0,6.1,4.2,9.1,12.7,9.2c-0.2-0.2-0.4-0.5-0.4-0.8C50,397.6,50.8,397.2,50.9,396.3z M46.2,369.9
			c0.5-0.1,0.8-0.5,0.7-0.9h0.2c0,1.2-1.1,2.4-2.4,1.4c-0.4-0.3-0.7-0.7-0.7-1.1C44.4,369.8,45.4,369.9,46.2,369.9z M47.7,369.5
			c0-0.1,0-0.2,0.1-0.2c0,0,0,0,0,0.1L47.7,369.5z M48.4,371.2c-0.3-0.2-0.5-0.4-0.6-0.7l0.1,0.1c0.3,0.2,0.6,0.5,0.9,0.8
			C48.7,371.3,48.5,371.3,48.4,371.2z M48.7,366.4c0.2-0.2,0.4-0.3,0.7-0.4c0,0.1,0,0.2,0,0.4c0,0-0.1,0.1-0.1,0.2
			C49.1,366.6,48.9,366.5,48.7,366.4z M65.3,357.3L65.3,357.3L65.3,357.3L65.3,357.3z"/>
		<path class="st0" d="M96.8,397.3c1,0,2,0.2,2.9,0.2c0.5-0.1,0.8-0.5,0.7-1h1.8c1.7,0,2.6,0.9,2.6,2.6c0,1.7-0.9,2.6-2.6,2.6H80.4
			c-1.5,0-2.4-0.6-2.6-1.9c0.3-0.4,0.5-0.8,0.8-1.1c0.3,0.1,0.6,0,1.2,0.2c0.6-0.1,0.8-0.6,0.7-1.1c0.7-0.3,1.2-0.7,1.6-1h0.1
			c0.2,0,0.4-0.1,0.4-0.2h1c-0.1-0.2-0.2-0.4-0.2-0.6h0c0.4-0.1,0.7-0.3,0.7-0.7c0.1,0,0.2-0.2,0.3-0.3c0,0.5,0,1,0,1.4
			c0.2,1.1,1.5,1.1,1.6-0.1c0-1.3,0.2-3.1,0.4-5.2c0.2-1.2,0.2-2.5,0.2-3.8c0,0,0-0.1,0-0.1c0,0,0,0,0-0.1v-1.7
			c0.3-3.2,0.2-6.4,0-9.7v-7.5c-0.1,0.1-0.3,0.2-0.4,0.3c0-0.7,0-1.3,0-2c-0.3-0.9-1.4-0.9-1.6,0.1c0,0.5,0,1,0,1.6
			c-1.6-1.3,0.1-3.6,2-2.5v-3.8c-0.4,0-0.6-0.2-0.9-0.3l-0.1-0.1c-0.1-0.1-0.2-0.1-0.2-0.2h0l-0.2-0.2c-0.5-0.3-1-0.6-1.5-1
			c-0.3-0.3-0.4-0.5-0.5-0.8h-2.6c-1.5,0-2.3-0.6-2.6-1.8c0.4,0,0.6-0.3,0.8-0.6c0-0.4,0.4-1.5,0.8-1.5c0.6-0.1,0.8-0.6,0.7-1.1
			c0.1,0.1,0.3,0.2,0.6,0.3c4.3,0,8.4,0.5,12.7,0.6c0.6-0.1,0.8-0.6,0.7-1h6c5.4,0,9.7,1.2,13,3.8c3.4,2.7,5.1,6.3,5.1,10.9
			c0,4.5-1.7,8.2-5.1,10.9c-3.2,2.6-7.2,3.9-12.1,3.9h-0.6c-0.1,0.6-0.6,1.2-1.4,1.3c-0.8,0-1.8,0.1-2.5-0.3
			c-0.3,0.4-0.7,0.5-1.2,0.5c0.3,0.6,0.4,1.2,0.2,1.8l-0.3-0.3v-0.1c0,0,0-0.1,0-0.1c0,0,0-0.1-0.1-0.1l0,0
			c-0.2-0.2-0.4-0.4-0.6-0.4h-0.1c-0.4-0.3-0.8-0.4-1.2-0.6c-0.1,0-0.1,0-0.2,0c0.3-0.4,0.8-0.6,1.4-0.5c-0.3-0.3-0.4-0.6-0.5-1.1
			h-2.3v2.9c-0.2-0.2-0.3-0.4-0.5-0.5c-1-0.3-1.5,0.7-0.8,1.4c0.5,2,0.4,4.2,0.4,6.2c0.2,1.1,1.5,1.1,1.6-0.1v-0.1
			c0.1,0.1,0.2,0.3,0.3,0.6c0,0.1,0,0.2,0.1,0.3c0.6,0.8,1.2,1.3,1.5,2.3v0H96C96,396.9,96.3,397.2,96.8,397.3z M99.7,378.2
			c0-0.1,0-0.2,0.1-0.3c1.1,0.1,2.3-0.2,3.4-0.6c1.2-0.1,2.6-0.2,3.5-0.6c0,0.6,0.6,1,1.3,0.6c1.1-0.9,2.5-1.5,3.6-2.3
			c0.2,0.4,0.7,0.5,1.2,0.2c2.5-2.7,3.3-6.1,2.2-9.7c-0.2-0.5-0.5-0.7-1-0.7c-0.4-1-0.9-1.7-1.7-2c-0.4-0.1-0.7,0-0.9,0.2
			c-0.6-0.6-1.2-1.1-1.9-1.4c-2.2-1.5-5.3-2.3-9.1-2.3h-2.3c0,0.1,0,0.2,0,0.3c-4,0.4-5.7,2.9-6,6.8c0,0.4,0.2,0.8,0.4,1.1
			c-0.4,2.1-0.2,4.5-0.2,6.3c0,0.4,0.2,0.8,0.4,1.1c0,0.2,0.1,0.4,0.1,0.6c0.3,0.6,0.8,1,1.2,1.1c0.2,0.2,0.3,0.3,0.4,0.3
			c1.2,1.1,1.7,1.3,3.1,1.2c0,0.1,0,0.1,0,0.2v0H99.7z M93.5,387.4c-0.2-0.1-0.4-0.3-0.5-0.5c0,0,0.1,0,0.2-0.1
			c0.3,0.1,0.4,0.3,0.7,0.5v0.4C93.7,387.6,93.6,387.5,93.5,387.4z M93.3,360c0.3-0.3,0.4-0.5,0.7-0.8h-1
			C93.1,359.5,93.2,359.8,93.3,360z"/>
		<path class="st0" d="M139.9,397.5c1.2,0,2.5,0.2,3.7,0.3c1.2,0.1,2,0.2,3.3,0.2c0.5,0,1,0,1.5,0c0.9-0.1,2.2-0.3,2.7-1.3
			c0.1-0.2,0.1-0.5,0.1-0.7c1.3-0.8,2.3-1.7,4.1-1.8h0.3V394c0.2-0.8,0.5-1.2,1.1-1.4v-5.3c0-1.7,0.9-2.6,2.6-2.6
			c1.7,0,2.6,0.9,2.6,2.6v11.8c0,1.4-1.2,2.6-2.6,2.6h-26.6c0,0,0-0.1,0-0.1c-0.4-2.2-3-0.3-4.1,0c-0.1,0-0.2,0.1-0.2,0.1h-4.7
			c-1.7,0-2.6-0.9-2.6-2.6c0-1.7,0.9-2.6,2.6-2.6h3c0.5-1.1,1.4-2.1,2.5-2.8V390c0.4,0.3,1,0,1.2-0.8c0-5.6,0.1-11.2-0.2-16.9
			c-0.2-1.9-0.1-4.1-0.9-5.8v-5.1c-0.8,0.1-1.5-0.4-1.7-1.4v0.1c0,0.2-0.1-0.1-0.2-0.4h-3.3c-1.7,0-2.6-0.9-2.6-2.6
			c0-1.7,0.9-2.6,2.6-2.6h7.1c0.1,0.2,0.3,0.3,0.6,0.4h0c2.3,0,4.4,0,6.6-0.5c0.8-0.2,1.4-0.6,2.3-0.8h0.1c0.3,0.2,0.6,0.6,0.7,0.9
			h7.5c-0.1-1.2,1.3-2.3,2.8-1.3c0.3,0.4,0.4,0.9,0.3,1.3h7.2c1.4,0,2.6,1.2,2.6,2.6V368c0,1.7-0.9,2.6-2.6,2.6
			c-1.7,0-2.6-0.9-2.6-2.6v-4.7c-0.1-0.1-0.2-0.2-0.2-0.3c-0.2-0.8-0.8-1.3-1.5-1.8c-0.2,0-0.4,0-0.6-0.1c-0.4,0-0.7-0.1-1.1-0.4
			c-0.4-0.2-0.6-0.6-0.7-0.9h-3.3c-0.2,0-0.3-0.1-0.4-0.2c-0.6-0.6-1.3-1.1-2-1.2c-0.7-0.1-1.3,0-2,0c-2.6-0.6-4.9-0.8-5.9,0.2
			c-0.2,0.4-0.2,0.6-0.1,0.9c0,0.1-0.1,0.2-0.1,0.2h-2.3c-0.2,0.2-0.3,0.4-0.4,0.4c-0.2,0.3-0.3,0.7-0.4,1c-0.4,1.1-0.6,2.2-0.7,3.3
			c-0.3,2.4,0,4.6,0.2,7c0.8,0.3,1.3,1,1.8,1.8c0,0.1,0,0.2,0,0.3h4c0.9-2,2.5-3.9,4.6-4.6c0.3-1,1.1-1.5,2.5-1.5
			c1.7,0,2.6,0.9,2.6,2.6v12c0,1.7-0.9,2.6-2.6,2.6c-1.7,0-2.6-0.9-2.6-2.6v-1.2c-0.6,0-1.2-0.3-1.6-1.1c-0.2-0.4-0.4-0.7-0.6-1
			h-7.5c0,0.1,0,0.2,0,0.3c0,0.9-0.5,1.4-1,1.6c0,0.3-0.1,0.5-0.1,0.8c-0.1,0.3-0.3,0.6-0.4,0.7v3.7c0.4-0.1,0.7-0.2,1-0.2
			c-0.8,2-0.4,5.2,0.4,7.1c-0.1,0.4-0.2,0.7-0.4,1c0.8,0.9,2,2,2.6,2.8h1.1C139,397,139.2,397.4,139.9,397.5z M134.4,389.8
			c0,0,0.1,0,0.1,0c0-0.1-0.1-0.1-0.1-0.2V389.8z M136.7,389.9c-0.1-0.4-0.1-0.8-0.1-1.3c0.2,0.2,0.4,0.2,0.7,0.1
			C137.2,389.2,137,389.6,136.7,389.9z M136.7,386.8l0.1,0.2c0,0-0.1,0-0.2,0C136.7,386.9,136.7,386.9,136.7,386.8z M146.1,393.8
			c-0.9-0.6-0.9-1.5-0.4-2.1l0.1,0.2c0.1,0.1,0.2,0.2,0.3,0.2s0.2,0.1,0.3,0.1h0.2c0.2,0.8,0.4,1.3,1,1.8
			C147.1,394.2,146.6,394.2,146.1,393.8z"/>
		<path class="st0" d="M207.7,387.9c-0.3,0-0.6,0-0.9,0.1c-0.1,0.3-0.2,0.6-0.4,0.8c0.3,0,0.6,0,1-0.1c-1,2.7-2.4,4.9-4.2,6.9
			c-3.3,3.5-7.8,5.5-13.4,6c-0.7-0.1-2.4-0.4-2.9-1c0.2,0,0.6-0.1,0.8-0.1c0.5-0.1,0.4-0.8-0.1-0.8c-0.2,0-0.4,0-0.5,0
			c0,0.1-0.1,0.2-0.3,0.3h-0.5c-0.2,0-0.3,0.1-0.4,0.2v0c0,0,0.1,0,0.1-0.1c0,0.1-0.1,0.2-0.1,0.2c0.1,0.6,0.5,1.1,1.1,1.4h-6.2
			c-0.7,0.1-1.4,0.2-1.8,0h-8.8c-1.7,0-2.6-0.9-2.6-2.6c0-1.7,0.9-2.6,2.6-2.6h0l0.2-0.6c0.3,0.2,0.7,0.4,1,0.5
			c0.2-0.2,0.5-0.4,0.8-0.4c-0.5-0.2-1-0.5-1.4-0.8c0.2-0.3,0.5-0.6,0.9-1c0.4-0.4,0.9-0.5,1.4-0.4V393l0,0c0.1-0.2,0.2-0.4,0.2-0.6
			c0-4.5,0.8-8.8,1-13.4c0.1-1.5,0.4-3.5-0.3-4.8l-0.1-0.1v-0.6c0-1.8,0-2-0.3-3.7c0-0.2-0.1-0.3-0.2-0.5c0-0.6-0.1-1.2-0.4-1.7
			v-5.7c-0.1,0-0.3-0.1-0.4-0.2c-0.2-0.2-0.4-0.3-0.5-0.5c-0.8,0.3-1.8-0.2-2-1.4h-0.1c-1.7,0-2.6-0.9-2.6-2.6
			c0-1.6,0.7-2.5,2.2-2.6c2.2,0.6,4.7,1,7,1.8c0.1-0.2,0.4-0.2,0.6,0c0,0.1,0.2,0.1,0.3,0.1h1.2c-0.5-0.2-1-0.4-1.5-0.7
			c-1.2-0.5-2.7-0.9-4.1-1.3h13.5c7.2,0,12.8,2.3,16.8,6.9c3.7,4.3,5.6,9.8,5.6,16.6C209.2,381.7,208.7,385,207.7,387.9z
			 M171.4,397.5c0,0,0-0.1,0.1-0.1c0,0-0.1-0.1-0.1-0.2c-0.1-0.1-0.1-0.2,0-0.4c0,0,0-0.1,0.1-0.1c-1-0.1-1.9-0.2-2.5,0.4
			c-0.3,0.4,0.1,0.8,0.6,0.6C169.6,397.5,170.5,397.5,171.4,397.5z M184.5,359.3h-0.2c-0.3,0.1-0.6,0.2-1,0.2c0.5,0.3,1,0.6,1.5,0.9
			c-0.5,0-1,0-1.4,0l-1.7-0.1c-0.3,0-0.7,0.1-1,0.1c0,1-0.4,2.2-1,3.3c-0.4-0.2-1,0-1.1,0.6c-0.1,1.9-0.9,3.6-1,5.5
			c0.1,0.6,0.5,0.9,1,0.8v11.3c-0.2,0.1-0.4,0.4-0.4,0.6v2.4c0,0.4,0.2,0.6,0.4,0.7v1.6c-0.1,0.1-0.1,0.2-0.2,0.3
			c-0.7,1.5-0.3,3-0.3,4.8c0,0.4,0.2,0.6,0.4,0.7v3.4h7.9c1.1,0,2.1,0,3.1-0.2c-0.1-0.1-0.2-0.3-0.2-0.6c0-0.1,0-0.2,0-0.3
			c1,0.2,1.9,0.8,2.8,1.4l0.7-0.1c0.1,0,0.3-0.1,0.4-0.1c-0.9-0.5-1.7-1.1-2.7-1.6c0.4,0,0.6-0.1,0.7-0.4c0.2-0.3,0.2-0.6,0-0.8
			c0.3,0.1,0.5,0.2,0.6,0.3c0,0-0.1,0-0.1,0c0,0-0.1,0-0.2,0c0.1,0.1,0.3,0.2,0.4,0.3c0,0,0-0.1,0-0.2c0.2,0.1,0.4,0.2,0.4,0.4
			c-0.1,0-0.2,0-0.2,0l0.2,0.2v-0.1c0,0,0-0.1,0-0.1c0.3,0.3,0.4,0.7,0.4,1.2c4-1,7-3.2,8.8-6.4c0.5,0,1-0.1,1.4-0.2
			c0.1-0.4,0.2-0.6,0.4-0.8c-0.5,0-1,0.1-1.4,0.2c0.6-1.1,1-2.4,1.4-3.7c1-1.1,1.2-2.9,1.4-4.6c-0.5-3.4-1.4-6.6-1.6-10.1
			c0-0.1,0-0.1,0-0.2c-2.6-5.3-9-7.3-13.8-10.2c-0.2,0.2-0.5,0.3-0.8,0.3c-0.4,0.1-0.8,0.1-1.2,0.2c0,0-0.1,0.1-0.1,0.2l-0.1,0.2
			c-0.2,0-0.3,0-0.5,0C185.8,360.1,185.2,359.7,184.5,359.3z M182.1,358.4c-0.3,0-0.5,0-0.8,0l0.2,0.1c0.5,0,1.1,0,1.6,0
			c0,0-0.1,0-0.1,0C182.7,358.5,182.4,358.5,182.1,358.4z M189.7,394.8c-0.1,0-0.3-0.1-0.4-0.1c0-0.1,0.1-0.2,0.2-0.3
			C189.6,394.6,189.6,394.8,189.7,394.8z M195.3,397.9c-0.4,0-0.9,0.1-1.4,0.2c0.2,0.1,0.4,0.1,0.5,0.2c0.2-0.1,0.2-0.1,0.3-0.2
			c0.2-0.1,0.4,0,0.5,0.1C195.3,398.1,195.3,398,195.3,397.9z M199.8,374c0,0.1,0,0.2,0,0.3c0,0.3,0.4,0.6,0.8,0.7h0.1l0,0
			c-0.4,0.8-1.3,1.2-2.2,0.4L199.8,374z M199.9,373.8c0.1-0.2,0.2-0.3,0.4-0.4l-0.5,0.6L199.9,373.8z"/>
		<path class="st0" d="M219.9,391c-0.4,0.5-0.7,1.2-0.8,1.9c0.1,0.6,0.5,0.9,1,0.8c0.1,0.5,0.4,0.9,0.8,1c0.5,0.2,0.9,0.1,1.2-0.3
			c0.1-0.1,0.1-0.2,0.2-0.4c0.4,0.4,0.6,0.8,0.6,1.5c0,0.2-0.1,0.3-0.1,0.4l-0.2,0.4h3.5c1.7,0,2.6,0.9,2.6,2.6
			c0,1.7-0.9,2.6-2.6,2.6h-4.1c-0.1-0.2-0.3-0.4-0.6-0.5c-2,0-3.9,0.1-5.8,0.2c-1.1-0.2-2.1-0.5-2.9-0.9c-0.8-0.3-1.4,0.5-1,1.2
			h-0.5c-1.2-0.2-1.8-1.1-1.8-2.5c0-1.7,0.9-2.6,2.6-2.6h2.5l8-21.7c1.2-2.1,2.5-4.1,2.9-6.7c0-0.3-0.1-0.5-0.2-0.7l2.2-5.9
			c-1.2-0.9-2.4-0.7-3.8-0.7c-1.1-0.1-1.6-0.8-1.6-1.6h-1.6c-1.7,0-2.6-0.9-2.6-2.6c0-0.9,0.2-1.5,0.6-2c0.2,0.2,0.4,0.3,0.7,0.4
			h0.2c0.3,0.6,0.8,1,1.5,1.2c1.6,0.4,3.2-0.8,4.7-0.9c0.2,0,0.4-0.1,0.5-0.2c2,0,4.1,0,6.2,0.2c1.9,0.3,3.9,0.4,5.9,0.3h0
			c0,0,0.1,0,0.2,0c0,0.1,0.1,0.2,0.1,0.2l10.4,26c-0.1-0.8,0.7-1.8,1.8-1.7c-0.4,1.1-0.6,2.3-0.2,3.2c-0.3,0-0.6-0.1-0.8-0.4
			c-0.2-0.1-0.3-0.2-0.4-0.3l5.6,13.9h2c1.7,0,2.6,0.9,2.6,2.6c0,1.7-0.9,2.6-2.6,2.6h-5.6c0-0.4-0.3-0.8-0.9-0.8
			c-2,0.2-5.2,0.8-5.5,0.8h-2c-1.7,0-2.6-0.9-2.6-2.6c0-1.7,0.9-2.6,2.6-2.6h0c0,0-0.1-0.1-0.2-0.1c-0.5-0.4-0.7-0.8-0.7-1.2
			c1.2,0,2.3-0.1,2.6-1.4c0,0,0.1,0.1,0.2,0.1c0.6,1,0.3,2.1-0.3,2.6h2.6c0-0.4,0.1-0.7,0.4-1.1c0.3-0.3,0.6-0.6,0.9-0.9l-2.7-6.9
			c-0.2,0-0.4,0-0.6,0c-0.3,0-0.5-0.1-0.8-0.2c-0.4-0.2-0.8-0.5-0.9-0.9h-19.3l-0.5,1.2l-0.1-0.1c0,0-0.1-0.1-0.2-0.1l-0.1,0
			c-0.2-0.1-0.5,0-0.7,0.1l-0.2,0.2l0,0.1c0,0.1-0.1,0.2-0.1,0.2c-0.1,0.6-0.5,1.1-1,1.7c-0.4,0-0.8,0.2-0.9,0.7V391z M232.3,362.6
			l0.8,0.5c-0.1,0.1-0.2,0.2-0.2,0.4v0.1c0,0.2-0.1,0.4-0.2,0.5c0-0.2,0-0.4,0-0.5c0-0.5-0.7-0.6-0.8-0.2c-0.3,0-0.6,0.1-0.8,0.4v0
			c0,0,0,0,0,0c-1.2,2.1-2.6,5.2-3.4,8.2c-0.3,0.5-0.4,1-0.6,1.4c-0.2,0.5-2,3.7-1.6,5c1,3.2,8.5,2.1,10.8,1.9h0.7
			c1.3,0.1,2.5,0,3-0.6c0.4,0.4,0.8,0.7,1.4,0.9c0.8,0.1,1.3-0.7,0.8-1.3c-0.6-0.7-1.4-1.2-1.7-2c-0.3-0.6-1-3.5-1.2-4.1
			c0,0,0-0.1-0.1-0.1c-0.5-3.2-2.2-6.1-2.5-9.3c-0.3-0.8-1.3-0.8-1.6-0.1c-0.8-0.9-1.6-1.6-2.5-2C232,361.7,231.8,362.3,232.3,362.6
			z M229.2,376c-0.1,0.1-0.2,0.1-0.3,0.2c0.1-0.1,0.1-0.2,0.2-0.3L229.2,376z M229.5,372.3c0.1-0.3,0.3-0.6,0.4-1
			c0,0.1,0,0.2,0.1,0.3C229.9,371.9,229.7,372,229.5,372.3z M232.7,376.2c0,0,0,0.1,0.1,0.1c0,0,0,0.1,0,0.2l-0.2-0.1v-0.2
			c0,0,0-0.1,0.1-0.1L232.7,376.2z M242.2,381.2L242.2,381.2l0.5,0L242.2,381.2z"/>
		<path class="st0" d="M296.6,394c0.1,0.8,0.6,1,1.1,0.8v1.7c0,2.1-2.5,3.8-7.4,5c-3.5,0.9-6.5,1.3-8.9,1.3
			c-6.6,0-12.1-2.4-16.5-7.2c-4.3-4.7-6.4-10.5-6.4-17.3c0-7.4,1.8-13.4,5.5-18c3.9-4.9,9.3-7.3,16.2-7.3c3.3,0,6.3,0.6,8.8,1.7
			c0.3-0.4,0.8-0.7,1.5-0.7c0.9,0,1.8,0,2.4,0.2c0.4-0.7,1.2-1,2.3-1c1.7,0,2.6,0.9,2.6,2.6v2c-0.3-0.1-0.6,0-0.9,0.2
			c-1.2,1.6-0.5,5.1-0.5,7.1c0.1,0.9,0.9,1,1.4,0.6v0.8c0,1.5-0.8,2.3-2.3,2.3c-0.8,0-1.6-0.3-2.2-0.8c-0.7-0.6-1-1.4-1-2.4v-0.4
			c-0.3,0-0.5-0.1-0.8-0.2c-2.2-1.3-3.1-3.4-4.3-5.4c0,0-0.1-0.1-0.1-0.2l-0.7-0.2c-0.4-0.3-0.8-0.5-1.3-0.7c-0.3-1-1.4-1.1-2.3-1.1
			c-0.5-0.1-1-0.2-1.6-0.3c-0.8-0.1-1.3-0.2-1.8,0c-0.6,0-1.7,0-2.5,0.3c-0.4,0-0.9-0.1-1.3-0.1c0-1-1.1-1.3-1.5-0.5
			c-0.3,0.8-1,1.3-1.4,1.9c-0.1,0.2-0.2,0.4-0.2,0.4c-1,0.4-1.4,1.2-1.9,2c-0.1,0-0.1,0.1-0.2,0.2c-0.3,0-0.6,0.1-1,0.1
			c-0.6,0.3-0.8,0.8-0.6,1.1c-0.4,0.3-0.7,0.6-1,1c-0.9,1-2.8,3.2-2,4.7v0c-1.2,2.9-1.7,6.2-1.7,10.1c0.7,0.7,0.9,2,1.2,2.7
			c0.3,1-0.1,1.8-0.7,2.1l0.2,1.1c0.2,0.2,0.4,0.5,0.6,0.9c0.5,0.5,1.8,3.7,3.1,4.5c0.4,0.8,0.4,1.5,0.1,2c0.2,0.2,0.4,0.4,0.6,0.6
			c3.4,3.7,7.6,5.5,12.6,5.5c3.6,0,6.6-0.5,9-1.4c-0.3-0.4-0.5-1-0.4-1.6c0.4-1.1,1-1.9,2.3-2h0.2v-3.9c-1-1.4-2.9-2.3-3.9-3.4h-6.4
			c-1.7,0-2.6-0.9-2.6-2.6s0.9-2.6,2.6-2.6h7.2c0,0,0.1,0,0.1,0.1c0.1,0.3,0.4,0.5,0.8,0.5c0.8,0,1.4,0.1,2.2,0.1c0.1,0,0.2,0,0.4,0
			c1.2,1.6,5.1,1.3,5.6-0.7v-0.1h0.8c1.7,0,2.6,0.9,2.6,2.6s-0.9,2.6-2.6,2.6h-0.5c0.3,0.5,0.3,1.2-0.3,1.9l0,0h0
			c-0.1,0.3-0.2,0.6-0.3,0.9c-0.1,0.4-0.3,0.6-0.5,0.8v2.9c-0.4-0.2-1,0.1-1.1,0.7V394z M274.3,358.8c0.2-0.1,0.4-0.2,0.6-0.2
			c-0.4,0.2-0.7,0.4-1.2,0.6l0.3-0.3L274.3,358.8z M290,369.2c0.3,0.5,0.4,1,0.3,1.6c-0.8-0.4-1.5,0.6-1,1.2
			c-0.4,0.1-0.9,0.1-1.4-0.3c-1.3-0.8-0.7-2.4,0.4-2.7v0.1c0.1,1,1.4,1.1,1.6,0.1C289.9,369.2,290,369.2,290,369.2z"/>
		<path class="st0" d="M344.3,358.8c0,0.5-0.2,0.9-0.4,1.2c0.6,0.8,1.2,1.6,1.7,2.5c2.6,4.5,3.9,9.7,3.9,15.6
			c0,5.9-1.3,11.1-3.9,15.5c-3.6,6.1-9.1,9.2-16.6,9.2s-13.1-3.1-16.8-9.1c-2.8-4.5-4.2-9.8-4.2-15.9c0-6,1.4-11.2,4.1-15.7
			c3.7-5.9,9.3-8.9,16.8-8.9c5.2,0,9.4,1.5,12.8,4.5c0.8-0.8,2.2-0.4,2.7,1V358.8z M341.7,387.8c0.8-2.2,1.3-5.2,1.4-6.3
			c0-0.9-1.1-1.3-1.5-0.4c0,0.1-0.1,0.2-0.1,0.2c-0.1,0.2-0.2,0.4-0.3,0.8c0.1-0.8,0.2-1.6,0.2-2.3v-0.4l-0.1-0.2
			c-0.1-0.2-0.2-0.2-0.3-0.3c0,0-0.1,0-0.1-0.1c-0.1,0-0.2,0-0.3,0c-0.1,0-0.2,0-0.2,0c0.2-1.6,0.4-3.3,0.5-4.9
			c0.1-0.8,0.6-1.2,1-1.4c-0.1-1.7-0.2-3.3-0.2-4.7c0-0.3,0.1-0.6,0.3-0.8c-0.3-0.6-0.6-1.2-0.9-1.8c-2.7-4.5-6.8-6.8-12.2-6.8
			c-5.5,0-9.6,2.2-12.4,6.5c-2.2,3.5-3.3,7.8-3.3,12.9c0,5.1,1.1,9.5,3.4,13.1c0.2,0.3,0.4,0.6,0.6,0.9c0.7,0,1.4,0.4,1.7,1.4v0.6
			c1.2,1.2,2.6,2.1,4.1,2.7c0.3-0.1,0.5-0.2,0.8-0.2h2.6h0c1.3-0.1,2.5-0.2,3.7-0.4c-0.2,0.6,0.1,1,0.8,1.1c2,0.1,4.3-1.1,6-2.2
			c0.1-0.2,0.2-0.4,0.2-0.6c0.3-0.1,0.4-0.2,0.6-0.4c1.7-0.3,2.3-1.8,2.5-3.5c0.5-0.5,1-1.3,1.3-2.2
			C341.6,387.9,341.6,387.9,341.7,387.8L341.7,387.8z M326.4,389.2C326.4,389.2,326.4,389.2,326.4,389.2c-0.2,0.1-0.4,0.1-0.5,0
			c-1,0.1-1.2,1.4-0.1,1.6c0.1,0,0.2,0,0.3,0c0.3,0,0.4,0.1,0.6,0.2c-0.3,0.9-1.3,1.4-2.3,0.6C322.5,390.3,324.3,387.9,326.4,389.2z
			 M344.3,400.5c-0.8-1.2,0.2-2.7,1.7-2.4C345.6,399.1,344.9,399.7,344.3,400.5z M346.5,400.5c0,0,0.1,0,0.1,0
			c-0.3,0.3-0.4,0.5-0.7,0.8c-0.1,0-0.2,0-0.3,0l0.5-0.6C346.3,400.6,346.4,400.5,346.5,400.5z"/>
		<path class="st0" d="M395.3,394c0.1,0.8,0.6,1,1.1,0.8v1.7c0,2.1-2.5,3.8-7.4,5c-3.5,0.9-6.5,1.3-8.9,1.3
			c-6.6,0-12.1-2.4-16.5-7.2c-4.3-4.7-6.4-10.5-6.4-17.3c0-7.4,1.8-13.4,5.5-18c3.9-4.9,9.3-7.3,16.2-7.3c3.3,0,6.3,0.6,8.8,1.7
			c0.3-0.4,0.8-0.7,1.5-0.7c0.9,0,1.8,0,2.4,0.2c0.4-0.7,1.2-1,2.3-1c1.7,0,2.6,0.9,2.6,2.6v2c-0.3-0.1-0.6,0-0.9,0.2
			c-1.2,1.6-0.5,5.1-0.5,7.1c0.1,0.9,0.9,1,1.4,0.6v0.8c0,1.5-0.8,2.3-2.3,2.3c-0.8,0-1.6-0.3-2.2-0.8c-0.7-0.6-1-1.4-1-2.4v-0.4
			c-0.3,0-0.5-0.1-0.8-0.2c-2.2-1.3-3.1-3.4-4.3-5.4c0,0-0.1-0.1-0.1-0.2l-0.7-0.2c-0.4-0.3-0.8-0.5-1.3-0.7c-0.3-1-1.4-1.1-2.3-1.1
			c-0.5-0.1-1-0.2-1.6-0.3c-0.8-0.1-1.3-0.2-1.8,0c-0.6,0-1.7,0-2.5,0.3c-0.4,0-0.9-0.1-1.3-0.1c0-1-1.1-1.3-1.5-0.5
			c-0.3,0.8-1,1.3-1.4,1.9c-0.1,0.2-0.2,0.4-0.2,0.4c-1,0.4-1.4,1.2-1.9,2c-0.1,0-0.1,0.1-0.2,0.2c-0.3,0-0.6,0.1-1,0.1
			c-0.6,0.3-0.8,0.8-0.6,1.1c-0.4,0.3-0.7,0.6-1,1c-0.9,1-2.8,3.2-2,4.7v0c-1.2,2.9-1.7,6.2-1.7,10.1c0.7,0.7,0.9,2,1.2,2.7
			c0.3,1-0.1,1.8-0.7,2.1l0.2,1.1c0.2,0.2,0.4,0.5,0.6,0.9c0.5,0.5,1.8,3.7,3.1,4.5c0.4,0.8,0.4,1.5,0.1,2c0.2,0.2,0.4,0.4,0.6,0.6
			c3.4,3.7,7.6,5.5,12.6,5.5c3.6,0,6.6-0.5,9-1.4c-0.3-0.4-0.5-1-0.4-1.6c0.4-1.1,1-1.9,2.3-2h0.2v-3.9c-1-1.4-2.9-2.3-3.9-3.4h-6.4
			c-1.7,0-2.6-0.9-2.6-2.6s0.9-2.6,2.6-2.6h7.2c0,0,0.1,0,0.1,0.1c0.1,0.3,0.4,0.5,0.8,0.5c0.8,0,1.4,0.1,2.2,0.1c0.1,0,0.2,0,0.4,0
			c1.2,1.6,5.1,1.3,5.6-0.7v-0.1h0.8c1.7,0,2.6,0.9,2.6,2.6s-0.9,2.6-2.6,2.6h-0.5c0.3,0.5,0.3,1.2-0.3,1.9l0,0h0
			c-0.1,0.3-0.2,0.6-0.3,0.9c-0.1,0.4-0.3,0.6-0.5,0.8v2.9c-0.4-0.2-1,0.1-1.1,0.7V394z M373,358.8c0.2-0.1,0.4-0.2,0.6-0.2
			c-0.4,0.2-0.7,0.4-1.2,0.6l0.3-0.3L373,358.8z M388.7,369.2c0.3,0.5,0.4,1,0.3,1.6c-0.8-0.4-1.5,0.6-1,1.2
			c-0.4,0.1-0.9,0.1-1.4-0.3c-1.3-0.8-0.7-2.4,0.4-2.7v0.1c0.1,1,1.4,1.1,1.6,0.1C388.7,369.2,388.7,369.2,388.7,369.2z"/>
		<path class="st0" d="M429.2,374.5c0-0.1,0-0.3-0.1-0.4c0.4-0.4,0.7-0.8,1-1.4c2.8-1.8,3.9-6.6,5.7-9.3c0.2-0.4,0.1-0.7-0.1-0.9
			c0.1-0.6,0.2-1.4,0.1-1.8c-0.2,0-0.3-0.1-0.3-0.1c-0.6-0.3-0.9-0.8-1-1.2c-1.6-0.1-2.3-1-2.3-2.6c0-1.7,0.8-2.6,2.5-2.6
			c0.1,0.1,0.3,0.2,0.5,0.2c0.2,0,0.4,0,0.6,0.1c0.2-0.2,0.4-0.4,0.8-0.4h4.3c0.6,0.2,0.8,0.6,0.6,1h1.6c0.1-0.2,0.2-0.4,0.1-0.7
			c-0.1-0.1-0.1-0.1-0.2-0.2h3.3c1.7,0,2.6,0.9,2.6,2.6s-0.9,2.6-2.6,2.6h-2.3l-2.5,4.1c-0.1-0.6-0.8-0.9-1.4-0.4
			c-1.1,1.1-1.4,3.3-2.1,4.6l-0.5,1c-2.3,3-4.6,7.2-5.1,10.2l-2,3.3c0.1,2.4,0.3,4.7,0.5,7.2c0.5-0.2,1.1-0.2,1.7,0.3
			c0.8,1.4-0.1,3.2-1.5,2.8c0,0.6,0,1.1,0.1,1.6c0,0.6-0.2,1-0.6,1.3c0.8,0.5,1.5,0.9,2.3,1c0.3,0.1,0.5,0.2,0.7,0.4h5.1
			c1.7,0,2.6,0.9,2.6,2.6c0,1.7-0.9,2.6-2.6,2.6h-10.1c-3.1-0.6-6.1-0.6-9.3-0.1c0,0,0,0,0,0c-1,0.1-0.8,0.1-2.3,0.1h-1.1
			c-1.7,0-2.6-0.9-2.6-2.6c0-1.7,0.9-2.6,2.6-2.6h5.5c0.3-1.1,1.4-2,3.1-2c0,0,0.1,0,0.2,0.1V391c0.2-2.9,0.6-5.6,0.7-8.5
			c-0.2-0.6-0.8-0.8-1.2-0.5l-0.8-1.3c0.5,0.3,1,0,1.2-0.8c-1.2-4.3-6.4-12-10.6-15.3l-2.2-3.7c-0.8-0.4-1.5-0.8-1.8-1.6h-1.6
			c-1.7,0-2.6-0.9-2.6-2.6c0-1,0.3-1.8,1-2.2c2.7,0.6,7.8,0.3,8.9,0.3c0.4-0.1,0.7-0.4,0.7-0.7h1.9c0,0.4,0.3,0.6,0.8,0.7h2.1
			c0.4-0.1,0.7-0.4,0.7-0.7c1.6,0.1,2.3,1,2.3,2.6c0,1.7-0.9,2.6-2.6,2.6h-2c-0.2,0.6-0.6,1-1.4,1.1c-0.3,0-0.4,0-0.7,0l1.1,1.9
			c-0.2,0.2-0.2,0.4-0.3,0.6c0.5,3.8,3.3,7.4,5.8,10.1c0.2,0.3,0.4,0.4,0.7,0.3c0.6,1.1,1.7,1.8,2.8,1.7h0.2
			C428.1,375.7,429.1,375.6,429.2,374.5z M417.1,370.1c2.6,3.2,4.9,7.1,5.7,9.7L417.1,370.1z M420.3,364.6c0,0,0.1,0,0.1-0.1
			c0.3,0.4,0.5,0.7,0.7,1.1c0,0.1,0,0.2,0,0.2c0.2,0.8,0.6,1.2,1,1.9c0,0,0,0.1,0,0.1c0,0,0,0,0,0.1c0,0.1,0.1,0.1,0.2,0.2v0.2
			C421.6,367.2,420.8,365.9,420.3,364.6z"/>
	</g>
	<g>
		<path class="st0" d="M27.2,283.4c-0.2-1.5-0.2-2.8-0.2-4c-0.2-0.7-0.2-1.1,0-1.7c0.6-0.4,1.1-0.9,1.8-1.3c0.6,0.4,0.9,0.9,1.3,1.8
			c0,2.8,0.2,5.5,0.6,8.3c0.2,2.4,2.6,2.4,3.7,0.6c0.9-2.9,0.7-6.4-0.6-9.4v-2.4c-0.4-1.3-1.7-1.8-2.6-1.5c-0.6-0.6-0.9-0.9-1.5-1.1
			c-0.9-0.4-1.1-0.4-1.8,0c-0.6,0.4-1.1,0.7-1.5,1.1v-17.6c-1.1,0.6-2.6,0-2.8-1.5v-4.4c0.2-1.8,1.7-2.2,2.8-1.5v-23.3
			c-0.4-0.4-0.7-0.7-0.7-1.5v-7c-0.6-0.2-0.9-0.7-0.9-1.7c-0.2-3.9-0.2-7.9-0.2-11.9c0.2-1.1,0.9-1.5,1.8-1.5V100.6
			c0.6,5.3,1.1,10.7,1.5,15.8c0.4,2.6,3.7,2.6,3.7,0c-0.9-15.6-3.7-31.6-4.4-47.4c-0.4,2-3.1,1.8-3.5-0.6c-0.4-7.9-3.3-7,3.5-10.3
			c0.2-3.5,0.4-6.8,0.9-10.3c0.7-5.7,2.4-14.5,7.7-18.4c2.6-1.7,5.9-1.8,8.8-2.8c1.8-1.1,1.3-3.5-1.1-3.5c-3.5,1.1-8.1,0.7-10.1,3.5
			c-2.2,2.9-5.3,5.1-6.1,8.5c-0.4,1.5-0.7,2.2-0.9,2.8v-3.5c0-6.4,5.5-11.9,11.9-11.9h48.1c7.9,0,11.9,4,11.9,11.9
			c0,7.9-4,11.9-11.9,11.9h-4.6c0.2-0.4,0.2-0.9,0-1.7c-2-3.7-14-7.5-17.3-5.1c-1.3,0.9-3.9,4.8-5,5c-0.2,0-0.4-0.2-0.4-0.2
			c-0.7-1.7-0.6-2.9-0.6-4.8c0-2.6-3.3-2.9-3.7-0.6c0,2-0.4,5.3,0.9,7.3h-5.7v23.7c0.9-0.2,2,0.7,2,2.2c-0.6,1.3-1.3,1.8-2,2.8v97.7
			c-1.7-0.7-3.3,0.6-2.4,2.6c1.5,2.8,2,5.9,2.2,9.2c-0.7,6.4-1.5,13-1.5,19.7v1.5c0,0.6,0.4,0.9,0.6,1.3c0.4,0.2,0.6,0.4,0.9,0.6
			h0.2v70.4c0.9,0,2,0.7,2,2.2v3.5h1.8c-0.4,0.9,0.2,2,1.8,2.4c8.3-0.2,16.7-0.9,25.2-1.1c0.9-0.2,1.3-0.7,1.5-1.3h3.9
			c7.9,0,11.9,4,11.9,11.9c0,7.9-4,11.9-11.9,11.9H71.8v0.4c0,2.6-3.3,2.6-3.7,0.2v-0.6H38.4c-3.1,0-6.1-1.3-8.5-3.7
			c-2-2-3.3-4.6-3.5-7.3c0.6-0.2,0.9-0.7,0.9-1.7c0-3.7,0-6.6-0.2-9.9c-0.2,1.1-0.7,1.8-0.9,2.9c-1.1,2.2-4,1.7-3.5-0.9
			c0-1.1,0.9-2.8,0.9-2.8C23.9,282,26.5,281.8,27.2,283.4z M27.2,66.8v-4c-0.4,0.2-0.6,0.2-0.7,0.4C26.8,64.4,27,65.7,27.2,66.8z
			 M48.9,238.2c1.1-2.4-2-3.7-3.3-1.7c-6.4,11.4,0.2,25.9,0.9,37.8c0.4,2.4,3.7,2.4,3.7-0.2C49.2,263.2,43,248.7,48.9,238.2z
			 M61.5,275.7h0.6c2.6,0,2.9,3.3,0.6,3.7h-1.1C59,279,59,275.7,61.5,275.7z M63.9,46.4h-1.5c1.1-1.3,2-2.9,3.7-3.5
			c1.5-0.4,5,0.2,6.4,0.6c1.5,0.4,2.9,0.7,4.2,1.3c-3.5,0.7-7.2,0.4-10.8,0.4C64.9,45.1,64.1,45.7,63.9,46.4z M68.7,265.4
			c0,0.2-0.2,1.1-0.2,1.8c0.9-0.9,1.8-2.4,2.4-2.8c0.6-0.6,1.1-0.7,1.7-0.6c0.4-1.1,2-1.7,3.1-0.7c1.3,1.7-0.4,3.5-1.8,3.1
			c-0.2,0.2-0.2,0.4-0.4,0.7c-1.7,1.5-2.9,3.7-5,4.6c-0.7,0-1.1,0-1.7-0.4c-1.8-1.5-1.8-3.5-1.8-5.7
			C65.4,263.2,68.2,263.4,68.7,265.4z"/>
		<path class="st0" d="M450.3,284.2c0,0,0.9,1.7,0.9,2.8c0.6,2.6-2.4,3.1-3.5,0.9c-0.2-1.1-0.7-1.8-0.9-2.9
			c-0.2,3.3-0.2,6.2-0.2,9.9c0,0.9,0.4,1.5,0.9,1.7c-0.2,2.8-1.5,5.3-3.5,7.3c-2.4,2.4-5.3,3.7-8.5,3.7h-29.8v0.6
			c-0.4,2.4-3.7,2.4-3.7-0.2v-0.4h-14.7c-7.9,0-11.9-4-11.9-11.9c0-7.9,4-11.9,11.9-11.9h3.9c0.2,0.6,0.6,1.1,1.5,1.3
			c8.5,0.2,16.9,0.9,25.2,1.1c1.7-0.4,2.2-1.5,1.8-2.4h1.8v-3.5c0-1.5,1.1-2.2,2-2.2v-70.4h0.2c0.4-0.2,0.6-0.4,0.9-0.6
			c0.2-0.4,0.6-0.7,0.6-1.3v-1.5c0-6.6-0.7-13.2-1.5-19.7c0.2-3.3,0.7-6.4,2.2-9.2c0.9-2-0.7-3.3-2.4-2.6V75.1
			c-0.7-0.9-1.5-1.5-2-2.8c0-1.5,1.1-2.4,2-2.2V46.4H418c1.3-2,0.9-5.3,0.9-7.3c-0.4-2.4-3.7-2-3.7,0.6c0,1.8,0.2,3.1-0.6,4.8
			c0,0-0.2,0.2-0.4,0.2c-1.1-0.2-3.7-4-5-5c-3.3-2.4-15.3,1.5-17.3,5.1c-0.2,0.7-0.2,1.3,0,1.7h-4.6c-7.9,0-11.9-4-11.9-11.9
			c0-7.9,4-11.9,11.9-11.9h48.1c6.4,0,11.9,5.5,11.9,11.9V38c-0.2-0.6-0.6-1.3-0.9-2.8c-0.7-3.3-3.9-5.5-6.1-8.5
			c-2-2.8-6.6-2.4-10.1-3.5c-2.4,0-2.9,2.4-1.1,3.5c2.9,0.9,6.2,1.1,8.8,2.8c5.3,3.9,7,12.7,7.7,18.4c0.6,3.5,0.7,6.8,0.9,10.3
			c6.8,3.3,3.9,2.4,3.5,10.3c-0.4,2.4-3.1,2.6-3.5,0.6c-0.7,15.8-3.5,31.8-4.4,47.4c0,2.6,3.3,2.6,3.7,0c0.4-5.1,0.9-10.5,1.5-15.8
			V202c0.9,0,1.7,0.4,1.8,1.5c0,4,0,8.1-0.2,11.9c0,0.9-0.4,1.5-0.9,1.7v7c0,0.7-0.4,1.1-0.7,1.5v23.3c1.1-0.7,2.6-0.4,2.8,1.5v4.4
			c-0.2,1.5-1.7,2-2.8,1.5v17.6c-0.4-0.4-0.9-0.7-1.5-1.1c-0.7-0.4-0.9-0.4-1.8,0c-0.6,0.2-0.9,0.6-1.5,1.1
			c-0.9-0.4-2.2,0.2-2.6,1.5v2.4c-1.3,2.9-1.5,6.4-0.6,9.4c1.1,1.8,3.5,1.8,3.7-0.6c0.4-2.8,0.6-5.5,0.6-8.3
			c0.4-0.9,0.7-1.5,1.3-1.8c0.7,0.4,1.3,0.9,1.8,1.3c0.2,0.6,0.2,0.9,0,1.7c0,1.3,0,2.6-0.2,4C447.6,281.8,450.1,282,450.3,284.2z
			 M408.1,45.1c-3.7,0-7.3,0.4-10.8-0.4c1.3-0.6,2.8-0.9,4.2-1.3c1.5-0.4,5-0.9,6.4-0.6c1.7,0.6,2.6,2.2,3.7,3.5h-1.5
			C409.9,45.7,409.2,45.1,408.1,45.1z M409,265.6c0,2.2,0,4.2-1.8,5.7c-0.6,0.4-0.9,0.4-1.7,0.4c-2-0.9-3.3-3.1-5-4.6
			c-0.2-0.4-0.2-0.6-0.4-0.7c-1.5,0.4-3.1-1.5-1.8-3.1c1.1-0.9,2.8-0.4,3.1,0.7c0.6-0.2,1.1,0,1.7,0.6c0.6,0.4,1.5,1.8,2.4,2.8
			c0-0.7-0.2-1.7-0.2-1.8C405.9,263.4,408.6,263.2,409,265.6z M412.5,279.4h-1.1c-2.4-0.4-2-3.7,0.6-3.7h0.6
			C415.1,275.7,415.1,279,412.5,279.4z M423.9,274.3c0,2.6,3.3,2.6,3.7,0.2c0.7-11.9,7.3-26.5,0.9-37.8c-1.3-2-4.4-0.7-3.3,1.7
			C431,248.7,424.8,263.2,423.9,274.3z M447.6,63.1c-0.2-0.2-0.4-0.2-0.7-0.4v4C447,65.7,447.2,64.4,447.6,63.1z"/>
	</g>
	<g>
		<path class="st0" d="M245.6,247.3c0-0.2,0-0.4-0.2-0.5c3.1,0,5.3-1,7-2.6c1.7,3.5,1.3,6.8,0.1,9.2c12.7-1.4,22.9-5.1,30.8-11.2
			c2.4-1.9,4.6-3.9,6.4-6.1c-0.6-0.2-0.9-0.5-1.1-0.7c-7.9-5.3-0.5-16.3,8.2-12c1.1-3.9,1.6-7.9,1.6-12.3c0-3.3-0.6-6.4-1.5-9.2
			c-4.2,2-9.6-0.1-10.3-6.7c0-2.2-0.2-4.2,0.3-6.2c-4.8-3.6-11.3-6.7-19.4-9.2c-3.5-2.2-7-4.4-10.7-6.7c-2-1.3-6.6-3.1-9.6-5.1
			c-0.6-1.6-2-2.6-4.1-2.5c-0.2,0.2-0.4,0.2-0.5,0.2c-0.5,0.2-0.9,0.4-1.3,0.7c-12.3-4.3-25.9-6.1-43-6.7c-1.7,0.2-2.9,0.9-3.5,1.9
			l-0.7,0c-4.4-2.9-8.9-5.8-14-8c-0.6-0.5-0.4-0.7-0.9-1.3c-0.9-0.9-1.8-1.6-2.8-1.8c-9.2-9.1-13.9-21-14-35.9
			c-0.1-19.7,6.7-35.5,20.8-47.5c14.1-12,32.8-18.2,56.5-18.4c14.5-0.1,28.1,3.1,40.7,9.8c2-4.4,6.6-5.6,10.3-3.4
			c1.4-4.6,5.1-6.8,11.2-6.9c7.9-0.1,12,4,12,11.9l0,2.2c-3.5-1.4-5.9,2.8-4,5.5c0,1.5,1.2,9.4,1.7,10.8c0.6,5,1.2,9.9,2.5,14.5
			l0.1,12.7c0.1,8.3-4,12.5-11.9,12.6c-7.9,0.1-12-4.1-12-12.4c0-3.7-1.2-7.3-3.4-10.8c-3.5,5.5-12.1,4.1-13.1-4.1l0-1.3
			c0.4-2.2,1.3-3.9,2.9-5.2c-0.6-0.4-0.9-0.7-1.3-1.1c-10.5-7.5-22.3-11.1-35.5-11c-17.8,0.1-31.6,4.3-41.1,12.6
			c-5.7,5-9.3,10.9-11.3,17.7l0.6,0.5c-0.2,0.7-0.4,1.3-0.4,1.7c0.2,0.9,0.4,1.7,0.9,2.4l0,0.2l-0.5,1.1c-0.5,1.3-0.7,2.8-0.7,4.4
			c0,1.7,0,3.3,0.2,4.8l0,0.4c0.9,4.4,5.9,4.7,7.2,0.5c0.7,0.7,1.7,1.3,3,1.6c-0.2,0.4-0.5,0.7-0.7,1.3c0.6,0.7,1.3,1.8,1.9,3.3
			l0,1.1c-0.2,3.9-2,6.1-4.4,7.4c4.6,4.4,11.1,8,19.4,10.7c-0.7,0.7-1.1,1.5-1.3,2c-0.9,4.4,3.7,6.6,6.1,3.6
			c1.3,0.2,2.2,0.2,3.5,0.2c2.9,0.2,4.8,0.2,6.4,0.1c8.7,4.9,19,7,28.4,10.1c13.3,4.5,26.9,8.5,40.7,13c0.2,1.3,1.3,2.7,3.3,2.9
			c0.4,0.5,0.9,0.9,1.7,1.1c1.7,0.5,3.7,0.5,5.3,1.4c5.2,3.1,9.3,10.4,12.8,19c0.9,4.2,1.5,8.6,1.6,13.4c0.1,21.5-8,38.5-24.5,50.5
			c-14.8,10.8-33.3,16.2-55.6,16.4c-14,0.1-26.3-1.5-37.1-4.9c-0.9,0.6-1.6,0.7-2.6,0.9l-1.3,0c-4.2-0.5-6.4-2.3-7.2-5.1
			c-0.2-0.2-0.4-0.2-0.6-0.4l0,0.9c-0.7,5.7-6,7.6-11,7.1l-0.6,0c-0.6,0-0.6-0.2-0.7-0.2c-2,2.6-5.1,3.9-9.5,3.9
			c-7.9,0.1-12-4-12-11.9l-0.1-8.6c0.7-0.6,1.1-1.5,1.3-2.9c0.5-0.6,0.4-0.6,0.9-1.1c3.8-9.2,7-22.5,2-31.8
			c-1.3-1.6-2.8-2.2-4.4-1.6l-0.1-9.6c-0.1-8.3,4-12.5,11.9-12.6c7.9-0.1,12,4.1,12,12.4c0.2,27.7,19.6,41.6,58.2,41.5
			c-0.9-1.1-1.7-2.2-1.9-3.5C241.6,253,245.1,251.1,245.6,247.3z M223.1,126.5c2.4-0.6,3.5-2.4,3.3-4.1l0.9,0c0,5.7-4.9,10.9-11,6.3
			c-2-1.3-3.1-3.1-3.3-5.1C215.2,126.4,219.6,126.5,223.1,126.5z M230.1,124.6c0-0.4,0.2-0.7,0.4-0.9c0,0.2,0.2,0.2,0.2,0.4
			L230.1,124.6z M233.3,132.3c-1.3-0.9-2.2-1.8-2.8-3.1l0.6,0.5c1.3,0.9,2.6,2.4,4.1,3.8C234.6,133,233.8,132.9,233.3,132.3z
			 M234.6,110.6c0.7-0.7,1.8-1.3,3.1-1.7c-0.2,0.6-0.2,1.1,0,1.7c-0.2,0.2-0.4,0.6-0.5,0.7C236.3,111.2,235.5,110.8,234.6,110.6z
			 M310.4,68.4l-0.2-0.2l0.2,0L310.4,68.4z"/>
	</g>
</g>
</svg>
